<svg xmlns="http://www.w3.org/2000/svg" width="960" height="540" viewBox="0 0 960 540">
<rect width="100%" height="100%" fill="#ffffff"/>
<style>
text { font-family: -apple-system, BlinkMacSystemFont, "Noto Sans TC", "Microsoft JhengHei", Arial, sans-serif; fill: #243044; }
.title { font-size: 24px; font-weight: 700; }
.label { font-size: 15px; }
.small { font-size: 13px; fill: #5d6b82; }
.value { font-size: 15px; font-weight: 700; }
</style>
<text x="32" y="42" class="title">主要數值欄位：中位數</text>
<text x="176" y="116.2" text-anchor="end" class="label">TOT_SA</text>
<rect x="190" y="95.2" width="665.0" height="28.0" rx="5" fill="#2f6fed"/>
<text x="865.0" y="116.2" class="value">960</text>
<text x="176" y="185.4" text-anchor="end" class="label">TOT_PREM</text>
<rect x="190" y="164.4" width="474.5" height="28.0" rx="5" fill="#2f6fed"/>
<text x="674.5" y="185.4" class="value">685</text>
<text x="176" y="254.6" text-anchor="end" class="label">DAYS</text>
<rect x="190" y="233.6" width="3.5" height="28.0" rx="5" fill="#2f6fed"/>
<text x="203.5" y="254.6" class="value">5</text>
<text x="176" y="323.7" text-anchor="end" class="label">LEAD_DAYS</text>
<rect x="190" y="302.7" width="0.7" height="28.0" rx="5" fill="#2f6fed"/>
<text x="200.7" y="323.7" class="value">1</text>
<text x="176" y="392.9" text-anchor="end" class="label">PREM_PER_DAY</text>
<rect x="190" y="371.9" width="85.7" height="28.0" rx="5" fill="#2f6fed"/>
<text x="285.7" y="392.9" class="value">124</text>
<text x="176" y="462.1" text-anchor="end" class="label">AGE_AT_PURCHASE</text>
<rect x="190" y="441.1" width="26.3" height="28.0" rx="5" fill="#2f6fed"/>
<text x="226.3" y="462.1" class="value">38</text>
</svg>
