<svg xmlns="http://www.w3.org/2000/svg" width="960" height="540" viewBox="0 0 960 540">
<rect width="100%" height="100%" fill="#ffffff"/>
<style>
text { font-family: -apple-system, BlinkMacSystemFont, "Noto Sans TC", "Microsoft JhengHei", Arial, sans-serif; fill: #243044; }
.title { font-size: 24px; font-weight: 700; }
.label { font-size: 15px; }
.small { font-size: 13px; fill: #5d6b82; }
.value { font-size: 15px; font-weight: 700; }
</style>
<text x="32" y="42" class="title">旅遊天數區間占比</text>
<text x="176" y="114.0" text-anchor="end" class="label">4-5天</text>
<rect x="190" y="93.0" width="665.0" height="28.0" rx="5" fill="#e8eef8"/>
<rect x="190" y="93.0" width="233.3" height="28.0" rx="5" fill="#7b61ff"/>
<text x="865.0" y="114.0" class="value">35.1%</text>
<text x="176" y="173.3" text-anchor="end" class="label">1-3天</text>
<rect x="190" y="152.3" width="665.0" height="28.0" rx="5" fill="#e8eef8"/>
<rect x="190" y="152.3" width="148.8" height="28.0" rx="5" fill="#7b61ff"/>
<text x="865.0" y="173.3" class="value">22.4%</text>
<text x="176" y="232.6" text-anchor="end" class="label">6-7天</text>
<rect x="190" y="211.6" width="665.0" height="28.0" rx="5" fill="#e8eef8"/>
<rect x="190" y="211.6" width="126.1" height="28.0" rx="5" fill="#7b61ff"/>
<text x="865.0" y="232.6" class="value">19.0%</text>
<text x="176" y="291.9" text-anchor="end" class="label">8-14天</text>
<rect x="190" y="270.9" width="665.0" height="28.0" rx="5" fill="#e8eef8"/>
<rect x="190" y="270.9" width="115.8" height="28.0" rx="5" fill="#7b61ff"/>
<text x="865.0" y="291.9" class="value">17.4%</text>
<text x="176" y="351.2" text-anchor="end" class="label">15-30天</text>
<rect x="190" y="330.2" width="665.0" height="28.0" rx="5" fill="#e8eef8"/>
<rect x="190" y="330.2" width="28.6" height="28.0" rx="5" fill="#7b61ff"/>
<text x="865.0" y="351.2" class="value">4.3%</text>
<text x="176" y="410.5" text-anchor="end" class="label">31-60天</text>
<rect x="190" y="389.5" width="665.0" height="28.0" rx="5" fill="#e8eef8"/>
<rect x="190" y="389.5" width="6.5" height="28.0" rx="5" fill="#7b61ff"/>
<text x="865.0" y="410.5" class="value">1.0%</text>
<text x="176" y="469.8" text-anchor="end" class="label">61天以上</text>
<rect x="190" y="448.8" width="665.0" height="28.0" rx="5" fill="#e8eef8"/>
<rect x="190" y="448.8" width="5.9" height="28.0" rx="5" fill="#7b61ff"/>
<text x="865.0" y="469.8" class="value">0.9%</text>
</svg>
