<svg xmlns="http://www.w3.org/2000/svg" width="960" height="540" viewBox="0 0 960 540">
<rect width="100%" height="100%" fill="#ffffff"/>
<style>
text { font-family: -apple-system, BlinkMacSystemFont, "Noto Sans TC", "Microsoft JhengHei", Arial, sans-serif; fill: #243044; }
.title { font-size: 24px; font-weight: 700; }
.label { font-size: 15px; }
.small { font-size: 13px; fill: #5d6b82; }
.value { font-size: 15px; font-weight: 700; }
</style>
<text x="32" y="42" class="title">年齡區間占比</text>
<text x="176" y="116.2" text-anchor="end" class="label">25-34</text>
<rect x="190" y="95.2" width="665.0" height="28.0" rx="5" fill="#e8eef8"/>
<rect x="190" y="95.2" width="213.0" height="28.0" rx="5" fill="#d95f02"/>
<text x="865.0" y="116.2" class="value">32.0%</text>
<text x="176" y="185.4" text-anchor="end" class="label">35-44</text>
<rect x="190" y="164.4" width="665.0" height="28.0" rx="5" fill="#e8eef8"/>
<rect x="190" y="164.4" width="162.7" height="28.0" rx="5" fill="#d95f02"/>
<text x="865.0" y="185.4" class="value">24.5%</text>
<text x="176" y="254.6" text-anchor="end" class="label">45-54</text>
<rect x="190" y="233.6" width="665.0" height="28.0" rx="5" fill="#e8eef8"/>
<rect x="190" y="233.6" width="114.7" height="28.0" rx="5" fill="#d95f02"/>
<text x="865.0" y="254.6" class="value">17.2%</text>
<text x="176" y="323.7" text-anchor="end" class="label">55-64</text>
<rect x="190" y="302.7" width="665.0" height="28.0" rx="5" fill="#e8eef8"/>
<rect x="190" y="302.7" width="84.5" height="28.0" rx="5" fill="#d95f02"/>
<text x="865.0" y="323.7" class="value">12.7%</text>
<text x="176" y="392.9" text-anchor="end" class="label">18-24</text>
<rect x="190" y="371.9" width="665.0" height="28.0" rx="5" fill="#e8eef8"/>
<rect x="190" y="371.9" width="47.5" height="28.0" rx="5" fill="#d95f02"/>
<text x="865.0" y="392.9" class="value">7.1%</text>
<text x="176" y="462.1" text-anchor="end" class="label">65+</text>
<rect x="190" y="441.1" width="665.0" height="28.0" rx="5" fill="#e8eef8"/>
<rect x="190" y="441.1" width="42.7" height="28.0" rx="5" fill="#d95f02"/>
<text x="865.0" y="462.1" class="value">6.4%</text>
</svg>
