<svg xmlns="http://www.w3.org/2000/svg" width="960" height="540" viewBox="0 0 960 540">
<rect width="100%" height="100%" fill="#ffffff"/>
<style>
text { font-family: -apple-system, BlinkMacSystemFont, "Noto Sans TC", "Microsoft JhengHei", Arial, sans-serif; fill: #243044; }
.title { font-size: 24px; font-weight: 700; }
.label { font-size: 15px; }
.small { font-size: 13px; fill: #5d6b82; }
.value { font-size: 15px; font-weight: 700; }
</style>
<text x="32" y="42" class="title">旅遊型態占比</text>
<text x="176" y="123.8" text-anchor="end" class="label">單純國內</text>
<rect x="190" y="102.8" width="665.0" height="28.0" rx="5" fill="#e8eef8"/>
<rect x="190" y="102.8" width="123.7" height="28.0" rx="5" fill="#2f6fed"/>
<text x="865.0" y="123.8" class="value">18.6%</text>
<text x="176" y="227.6" text-anchor="end" class="label">單純海外</text>
<rect x="190" y="206.6" width="665.0" height="28.0" rx="5" fill="#e8eef8"/>
<rect x="190" y="206.6" width="541.3" height="28.0" rx="5" fill="#2f6fed"/>
<text x="865.0" y="227.6" class="value">81.4%</text>
<text x="176" y="331.3" text-anchor="end" class="label">國內海外混合</text>
<rect x="190" y="310.3" width="665.0" height="28.0" rx="5" fill="#e8eef8"/>
<rect x="190" y="310.3" width="0.0" height="28.0" rx="5" fill="#2f6fed"/>
<text x="865.0" y="331.3" class="value">0.0%</text>
<text x="176" y="435.1" text-anchor="end" class="label">目的地缺漏</text>
<rect x="190" y="414.1" width="665.0" height="28.0" rx="5" fill="#e8eef8"/>
<rect x="190" y="414.1" width="0.0" height="28.0" rx="5" fill="#2f6fed"/>
<text x="865.0" y="435.1" class="value">0.0%</text>
</svg>
