<svg xmlns="http://www.w3.org/2000/svg" width="960" height="650" viewBox="0 0 960 650">
<rect width="100%" height="100%" fill="#ffffff"/>
<style>
text { font-family: -apple-system, BlinkMacSystemFont, "Noto Sans TC", "Microsoft JhengHei", Arial, sans-serif; fill: #243044; }
.title { font-size: 24px; font-weight: 700; }
.label { font-size: 15px; }
.small { font-size: 13px; fill: #5d6b82; }
.value { font-size: 15px; font-weight: 700; }
</style>
<text x="32" y="42" class="title">熱門目的地 Top 15</text>
<text x="176" y="101.3" text-anchor="end" class="label">日本</text>
<rect x="190" y="87.7" width="665.0" height="18.2" rx="5" fill="#1c8c62"/>
<text x="865.0" y="101.3" class="value">137,242</text>
<text x="176" y="136.3" text-anchor="end" class="label">國內</text>
<rect x="190" y="122.7" width="341.8" height="18.2" rx="5" fill="#1c8c62"/>
<text x="541.8" y="136.3" class="value">70,544</text>
<text x="176" y="171.3" text-anchor="end" class="label">南韓</text>
<rect x="190" y="157.7" width="178.1" height="18.2" rx="5" fill="#1c8c62"/>
<text x="378.1" y="171.3" class="value">36,751</text>
<text x="176" y="206.3" text-anchor="end" class="label">東南亞</text>
<rect x="190" y="192.7" width="159.8" height="18.2" rx="5" fill="#1c8c62"/>
<text x="359.8" y="206.3" class="value">32,987</text>
<text x="176" y="241.3" text-anchor="end" class="label">中國大陸</text>
<rect x="190" y="227.7" width="158.7" height="18.2" rx="5" fill="#1c8c62"/>
<text x="358.7" y="241.3" class="value">32,758</text>
<text x="176" y="276.3" text-anchor="end" class="label">香港</text>
<rect x="190" y="262.7" width="86.3" height="18.2" rx="5" fill="#1c8c62"/>
<text x="286.3" y="276.3" class="value">17,809</text>
<text x="176" y="311.3" text-anchor="end" class="label">歐洲申根國家</text>
<rect x="190" y="297.7" width="77.3" height="18.2" rx="5" fill="#1c8c62"/>
<text x="277.3" y="311.3" class="value">15,952</text>
<text x="176" y="346.3" text-anchor="end" class="label">美國</text>
<rect x="190" y="332.7" width="48.2" height="18.2" rx="5" fill="#1c8c62"/>
<text x="248.2" y="346.3" class="value">9,947</text>
<text x="176" y="381.3" text-anchor="end" class="label">泰國</text>
<rect x="190" y="367.7" width="43.0" height="18.2" rx="5" fill="#1c8c62"/>
<text x="243.0" y="381.3" class="value">8,867</text>
<text x="176" y="416.3" text-anchor="end" class="label">其他</text>
<rect x="190" y="402.7" width="33.2" height="18.2" rx="5" fill="#1c8c62"/>
<text x="233.2" y="416.3" class="value">6,857</text>
<text x="176" y="451.3" text-anchor="end" class="label">澳門</text>
<rect x="190" y="437.7" width="31.2" height="18.2" rx="5" fill="#1c8c62"/>
<text x="231.2" y="451.3" class="value">6,446</text>
<text x="176" y="486.3" text-anchor="end" class="label">越南</text>
<rect x="190" y="472.7" width="27.2" height="18.2" rx="5" fill="#1c8c62"/>
<text x="227.2" y="486.3" class="value">5,615</text>
<text x="176" y="521.4" text-anchor="end" class="label">澳大利亞</text>
<rect x="190" y="507.7" width="18.7" height="18.2" rx="5" fill="#1c8c62"/>
<text x="218.7" y="521.4" class="value">3,868</text>
<text x="176" y="556.4" text-anchor="end" class="label">歐洲非申根國家</text>
<rect x="190" y="542.7" width="18.1" height="18.2" rx="5" fill="#1c8c62"/>
<text x="218.1" y="556.4" class="value">3,739</text>
<text x="176" y="591.4" text-anchor="end" class="label">新加坡</text>
<rect x="190" y="577.7" width="13.7" height="18.2" rx="5" fill="#1c8c62"/>
<text x="213.7" y="591.4" class="value">2,828</text>
</svg>
