<svg xmlns="http://www.w3.org/2000/svg" width="960" height="540" viewBox="0 0 960 540">
<rect width="100%" height="100%" fill="#ffffff"/>
<style>
text { font-family: -apple-system, BlinkMacSystemFont, "Noto Sans TC", "Microsoft JhengHei", Arial, sans-serif; fill: #243044; }
.title { font-size: 24px; font-weight: 700; }
.label { font-size: 15px; }
.small { font-size: 13px; fill: #5d6b82; }
.value { font-size: 15px; font-weight: 700; }
</style>
<text x="32" y="42" class="title">回購間隔分布</text>
<text x="176" y="116.2" text-anchor="end" class="label">31-90天</text>
<rect x="190" y="95.2" width="665.0" height="28.0" rx="5" fill="#e8eef8"/>
<rect x="190" y="95.2" width="164.0" height="28.0" rx="5" fill="#2f6fed"/>
<text x="865.0" y="116.2" class="value">24.7%</text>
<text x="176" y="185.4" text-anchor="end" class="label">181-365天</text>
<rect x="190" y="164.4" width="665.0" height="28.0" rx="5" fill="#e8eef8"/>
<rect x="190" y="164.4" width="150.2" height="28.0" rx="5" fill="#2f6fed"/>
<text x="865.0" y="185.4" class="value">22.6%</text>
<text x="176" y="254.6" text-anchor="end" class="label">91-180天</text>
<rect x="190" y="233.6" width="665.0" height="28.0" rx="5" fill="#e8eef8"/>
<rect x="190" y="233.6" width="146.8" height="28.0" rx="5" fill="#2f6fed"/>
<text x="865.0" y="254.6" class="value">22.1%</text>
<text x="176" y="323.7" text-anchor="end" class="label">1-30天</text>
<rect x="190" y="302.7" width="665.0" height="28.0" rx="5" fill="#e8eef8"/>
<rect x="190" y="302.7" width="98.4" height="28.0" rx="5" fill="#2f6fed"/>
<text x="865.0" y="323.7" class="value">14.8%</text>
<text x="176" y="392.9" text-anchor="end" class="label">365天以上</text>
<rect x="190" y="371.9" width="665.0" height="28.0" rx="5" fill="#e8eef8"/>
<rect x="190" y="371.9" width="93.6" height="28.0" rx="5" fill="#2f6fed"/>
<text x="865.0" y="392.9" class="value">14.1%</text>
<text x="176" y="462.1" text-anchor="end" class="label">同日</text>
<rect x="190" y="441.1" width="665.0" height="28.0" rx="5" fill="#e8eef8"/>
<rect x="190" y="441.1" width="12.0" height="28.0" rx="5" fill="#2f6fed"/>
<text x="865.0" y="462.1" class="value">1.8%</text>
</svg>
