<svg xmlns="http://www.w3.org/2000/svg" width="1000" height="560" viewBox="0 0 1000 560">
<rect width="100%" height="100%" fill="#ffffff"/>
<style>
text { font-family: -apple-system, BlinkMacSystemFont, "Noto Sans TC", "Microsoft JhengHei", Arial, sans-serif; fill: #243044; }
.title { font-size: 24px; font-weight: 700; }
.label { font-size: 14px; }
.small { font-size: 12px; fill: #5d6b82; }
.value { font-size: 14px; font-weight: 700; }
</style>
<text x="30" y="42" class="title">各群 2025 累積回購曲線</text>
<line x1="70" y1="490" x2="830" y2="490" stroke="#c8d2e3"/>
<line x1="70" y1="78" x2="70" y2="490" stroke="#c8d2e3"/>
<line x1="70.0" y1="490" x2="70.0" y2="495" stroke="#c8d2e3"/>
<text x="70.0" y="514" text-anchor="middle" class="small">0</text>
<line x1="257.4" y1="490" x2="257.4" y2="495" stroke="#c8d2e3"/>
<text x="257.4" y="514" text-anchor="middle" class="small">90</text>
<line x1="444.8" y1="490" x2="444.8" y2="495" stroke="#c8d2e3"/>
<text x="444.8" y="514" text-anchor="middle" class="small">180</text>
<line x1="632.2" y1="490" x2="632.2" y2="495" stroke="#c8d2e3"/>
<text x="632.2" y="514" text-anchor="middle" class="small">270</text>
<line x1="830.0" y1="490" x2="830.0" y2="495" stroke="#c8d2e3"/>
<text x="830.0" y="514" text-anchor="middle" class="small">365</text>
<text x="450.0" y="542" text-anchor="middle" class="small">距 2023-2024 最後一次投保天數</text>
<polyline points="70.0,490.0 78.3,490.0 82.5,490.0 84.6,490.0 86.7,490.0 88.7,490.0 90.8,490.0 92.9,489.9 95.0,489.9 97.1,489.9 99.2,489.9 101.2,489.9 103.3,489.8 105.4,489.8 107.5,489.8 109.6,489.7 111.6,489.7 113.7,489.7 115.8,489.6 117.9,489.6 120.0,489.6 122.1,489.6 124.1,489.5 126.2,489.5 128.3,489.4 130.4,489.3 132.5,489.3 134.5,489.2 136.6,489.1 138.7,489.1 140.8,489.0 142.9,488.9 145.0,488.9 147.0,488.8 149.1,488.8 151.2,488.7 153.3,488.7 155.4,488.6 157.5,488.5 159.5,488.5 161.6,488.4 163.7,488.4 165.8,488.3 167.9,488.3 169.9,488.2 172.0,488.2 174.1,488.1 176.2,488.1 178.3,488.0 180.4,487.9 182.4,487.8 184.5,487.7 186.6,487.6 188.7,487.6 190.8,487.5 192.8,487.4 194.9,487.3 197.0,487.2 199.1,487.2 201.2,487.1 203.3,487.0 205.3,487.0 207.4,486.9 209.5,486.8 211.6,486.7 213.7,486.7 215.8,486.6 217.8,486.5 219.9,486.4 222.0,486.3 224.1,486.2 226.2,486.2 228.2,486.1 230.3,486.0 232.4,485.9 234.5,485.8 236.6,485.7 238.7,485.6 240.7,485.5 242.8,485.4 244.9,485.3 247.0,485.3 249.1,485.2 251.2,485.1 253.2,485.0 255.3,484.9 257.4,484.8 259.5,484.7 261.6,484.6 263.6,484.5 265.7,484.4 267.8,484.3 269.9,484.2 272.0,484.1 274.1,483.9 276.1,483.8 278.2,483.8 280.3,483.7 282.4,483.6 284.5,483.5 286.5,483.4 288.6,483.3 290.7,483.2 292.8,483.1 294.9,483.0 297.0,482.9 299.0,482.9 301.1,482.7 303.2,482.6 305.3,482.5 307.4,482.4 309.5,482.2 311.5,482.1 313.6,482.0 315.7,481.9 317.8,481.8 319.9,481.7 321.9,481.5 324.0,481.4 326.1,481.3 328.2,481.2 330.3,481.1 332.4,480.9 334.4,480.8 336.5,480.7 338.6,480.6 340.7,480.5 342.8,480.3 344.8,480.2 346.9,480.0 349.0,479.9 351.1,479.7 353.2,479.6 355.3,479.5 357.3,479.4 359.4,479.3 361.5,479.1 363.6,479.0 365.7,478.9 367.8,478.8 369.8,478.7 371.9,478.6 374.0,478.5 376.1,478.3 378.2,478.2 380.2,478.1 382.3,478.0 384.4,477.9 386.5,477.8 388.6,477.6 390.7,477.4 392.7,477.3 394.8,477.2 396.9,477.0 399.0,476.9 401.1,476.7 403.2,476.6 405.2,476.5 407.3,476.3 409.4,476.1 411.5,476.0 413.6,475.9 415.6,475.8 417.7,475.7 419.8,475.5 421.9,475.4 424.0,475.3 426.1,475.1 428.1,475.0 430.2,474.9 432.3,474.7 434.4,474.6 436.5,474.4 438.5,474.3 440.6,474.2 442.7,474.1 444.8,473.9 446.9,473.8 449.0,473.6 451.0,473.5 453.1,473.4 455.2,473.3 457.3,473.2 459.4,473.0 461.5,472.9 463.5,472.8 465.6,472.6 467.7,472.5 469.8,472.4 471.9,472.3 473.9,472.1 476.0,472.0 478.1,471.9 480.2,471.7 482.3,471.6 484.4,471.5 486.4,471.4 488.5,471.2 490.6,471.1 492.7,470.9 494.8,470.8 496.8,470.7 498.9,470.6 501.0,470.4 503.1,470.3 505.2,470.2 507.3,470.1 509.3,469.9 511.4,469.8 513.5,469.7 515.6,469.6 517.7,469.5 519.8,469.4 521.8,469.3 523.9,469.2 526.0,469.1 528.1,469.0 530.2,468.9 532.2,468.7 534.3,468.6 536.4,468.5 538.5,468.4 540.6,468.3 542.7,468.2 544.7,468.1 546.8,468.0 548.9,467.9 551.0,467.7 553.1,467.6 555.2,467.5 557.2,467.4 559.3,467.3 561.4,467.2 563.5,467.1 565.6,466.9 567.6,466.8 569.7,466.7 571.8,466.6 573.9,466.5 576.0,466.4 578.1,466.3 580.1,466.2 582.2,466.1 584.3,466.0 586.4,465.9 588.5,465.8 590.5,465.7 592.6,465.6 594.7,465.4 596.8,465.3 598.9,465.3 601.0,465.1 603.0,465.0 605.1,464.9 607.2,464.8 609.3,464.7 611.4,464.6 613.5,464.5 615.5,464.4 617.6,464.3 619.7,464.1 621.8,464.0 623.9,463.9 625.9,463.8 628.0,463.7 630.1,463.5 632.2,463.4 634.3,463.3 636.4,463.1 638.4,463.0 640.5,462.9 642.6,462.7 644.7,462.6 646.8,462.5 648.8,462.5 650.9,462.3 653.0,462.2 655.1,462.1 657.2,462.0 659.3,461.9 661.3,461.8 663.4,461.7 665.5,461.6 667.6,461.5 669.7,461.4 671.8,461.3 673.8,461.2 675.9,461.1 678.0,460.9 680.1,460.8 682.2,460.6 684.2,460.5 686.3,460.4 688.4,460.3 690.5,460.2 692.6,460.1 694.7,460.0 696.7,459.8 698.8,459.7 700.9,459.6 703.0,459.5 705.1,459.4 707.2,459.3 709.2,459.2 711.3,459.0 713.4,458.9 715.5,458.8 717.6,458.7 719.6,458.6 721.7,458.5 723.8,458.4 725.9,458.2 728.0,458.1 730.1,458.0 732.1,457.9 734.2,457.7 736.3,457.6 738.4,457.5 740.5,457.3 742.5,457.2 744.6,457.1 746.7,457.0 748.8,456.9 750.9,456.8 753.0,456.6 755.0,456.5 757.1,456.4 759.2,456.3 761.3,456.2 763.4,456.0 765.5,455.9 767.5,455.8 769.6,455.6 771.7,455.5 773.8,455.4 775.9,455.3 777.9,455.1 780.0,455.0 782.1,454.8 784.2,454.7 786.3,454.5 788.4,454.4 790.4,454.3 792.5,454.2 794.6,454.0 796.7,453.8 798.8,453.7 800.8,453.5 802.9,453.3 805.0,453.2 807.1,453.0 809.2,452.8 811.3,452.6 813.3,452.3 815.4,452.1 817.5,451.9 819.6,451.8 821.7,451.6 823.8,451.4 825.8,451.1 827.9,450.8 830.0,450.6" fill="none" stroke="#2f6fed" stroke-width="3"/>
<rect x="858" y="66" width="14" height="14" fill="#2f6fed"/>
<text x="878" y="78" class="small">0 海外日本主力客</text>
<polyline points="70.0,490.0 78.3,489.9 86.7,489.9 97.1,489.8 99.2,489.7 105.4,489.7 107.5,489.6 109.6,489.6 115.8,489.5 117.9,489.5 122.1,489.4 126.2,489.4 128.3,489.3 132.5,489.3 134.5,489.2 136.6,489.0 142.9,489.0 145.0,488.9 147.0,488.8 149.1,488.8 151.2,488.7 153.3,488.7 157.5,488.6 159.5,488.5 161.6,488.5 165.8,488.3 167.9,488.2 169.9,488.2 172.0,488.1 174.1,488.0 176.2,488.0 178.3,487.9 182.4,487.8 184.5,487.8 186.6,487.7 190.8,487.5 192.8,487.4 197.0,487.3 199.1,487.1 201.2,486.8 203.3,486.7 207.4,486.7 209.5,486.6 211.6,486.5 213.7,486.5 215.8,486.4 217.8,486.3 219.9,486.3 222.0,486.2 226.2,486.2 228.2,486.1 236.6,486.1 240.7,486.0 242.8,485.9 244.9,485.7 247.0,485.6 249.1,485.3 251.2,485.2 255.3,485.1 257.4,485.0 259.5,484.9 261.6,484.7 263.6,484.6 265.7,484.5 267.8,484.4 269.9,484.2 272.0,484.0 278.2,483.8 280.3,483.8 284.5,483.7 286.5,483.5 288.6,483.4 290.7,483.3 292.8,483.2 297.0,483.2 299.0,483.0 301.1,482.9 303.2,482.6 305.3,482.5 307.4,482.4 309.5,482.1 313.6,481.8 315.7,481.8 317.8,481.7 319.9,481.5 321.9,481.4 324.0,481.4 326.1,481.3 328.2,481.2 330.3,481.1 332.4,481.1 334.4,480.9 336.5,480.8 338.6,480.7 344.8,480.6 346.9,480.3 349.0,480.1 353.2,479.8 355.3,479.6 357.3,479.5 359.4,479.4 361.5,479.2 363.6,479.1 365.7,478.9 367.8,478.6 369.8,478.6 371.9,478.4 374.0,478.0 376.1,477.6 378.2,477.2 380.2,477.2 382.3,476.9 384.4,476.8 386.5,476.5 388.6,476.2 390.7,476.1 392.7,475.8 394.8,475.5 396.9,475.4 399.0,475.3 403.2,475.2 405.2,475.1 407.3,475.0 409.4,474.8 411.5,474.7 413.6,474.6 415.6,474.5 417.7,474.2 419.8,474.0 421.9,473.9 424.0,473.8 426.1,473.5 428.1,473.4 430.2,473.3 432.3,473.2 434.4,473.0 436.5,472.9 438.5,472.8 440.6,472.7 442.7,472.5 444.8,472.2 446.9,472.1 449.0,472.0 451.0,471.6 453.1,471.5 455.2,471.3 457.3,471.1 459.4,471.0 461.5,470.9 463.5,470.7 465.6,470.6 467.7,470.5 469.8,470.4 471.9,470.2 473.9,470.1 476.0,469.9 478.1,469.6 480.2,469.5 482.3,469.4 486.4,469.1 488.5,469.0 490.6,468.8 494.8,468.8 496.8,468.7 498.9,468.5 501.0,468.3 503.1,467.9 507.3,467.6 509.3,467.6 511.4,467.5 513.5,467.5 515.6,467.3 519.8,467.1 523.9,467.0 526.0,466.7 528.1,466.7 530.2,466.2 532.2,466.1 534.3,465.8 536.4,465.8 538.5,465.7 540.6,465.6 542.7,465.4 544.7,465.3 546.8,465.2 548.9,465.2 551.0,465.0 553.1,464.9 555.2,464.9 557.2,464.6 559.3,464.5 561.4,464.4 565.6,464.3 567.6,464.2 569.7,464.1 576.0,463.9 578.1,463.7 582.2,463.6 584.3,463.5 586.4,463.4 588.5,463.2 590.5,463.1 594.7,463.0 596.8,462.9 598.9,462.8 601.0,462.6 603.0,462.4 605.1,462.3 607.2,462.1 609.3,461.9 611.4,461.7 613.5,461.7 615.5,461.6 617.6,461.5 619.7,461.2 621.8,461.1 623.9,461.1 625.9,460.9 628.0,460.8 630.1,460.8 632.2,460.6 634.3,460.6 636.4,460.5 638.4,460.4 642.6,460.2 644.7,460.0 646.8,459.8 648.8,459.6 650.9,459.4 653.0,459.3 655.1,459.3 657.2,459.2 659.3,459.1 661.3,458.8 663.4,458.6 665.5,458.4 667.6,458.2 669.7,458.0 671.8,457.8 673.8,457.7 675.9,457.5 678.0,457.4 680.1,457.3 682.2,457.2 684.2,457.1 686.3,456.6 688.4,456.5 690.5,456.5 692.6,456.2 694.7,456.1 696.7,456.0 698.8,456.0 700.9,455.9 703.0,455.7 705.1,455.5 707.2,455.4 709.2,455.3 711.3,455.1 713.4,454.8 715.5,454.6 717.6,454.5 719.6,454.4 721.7,454.3 723.8,454.3 725.9,454.2 728.0,454.1 730.1,454.0 732.1,453.9 734.2,453.8 736.3,453.7 738.4,453.6 740.5,453.5 742.5,453.4 744.6,453.2 746.7,453.2 748.8,453.1 750.9,453.0 753.0,452.9 755.0,452.8 759.2,452.5 761.3,452.3 763.4,452.2 765.5,452.1 767.5,452.0 769.6,451.8 771.7,451.6 773.8,451.4 775.9,451.0 777.9,450.8 780.0,450.6 782.1,450.5 784.2,450.5 786.3,450.4 788.4,450.2 790.4,450.1 792.5,449.9 794.6,449.8 796.7,449.6 798.8,449.4 800.8,449.3 802.9,449.1 805.0,448.9 807.1,448.8 809.2,448.5 811.3,448.2 813.3,448.1 817.5,447.8 819.6,447.5 821.7,447.4 823.8,447.3 825.8,447.2 827.9,446.7 830.0,446.6" fill="none" stroke="#1c8c62" stroke-width="3"/>
<rect x="858" y="90" width="14" height="14" fill="#1c8c62"/>
<text x="878" y="102" class="small">1 多目的地長天數高價值客</text>
<polyline points="70.0,490.0 74.2,490.0 76.2,490.0 80.4,489.9 84.6,489.9 86.7,489.9 90.8,489.8 95.0,489.8 97.1,489.8 101.2,489.8 103.3,489.7 105.4,489.7 107.5,489.7 109.6,489.7 111.6,489.7 113.7,489.6 115.8,489.6 117.9,489.6 120.0,489.5 122.1,489.5 124.1,489.4 126.2,489.4 128.3,489.3 130.4,489.3 132.5,489.2 134.5,489.2 136.6,489.1 138.7,489.1 140.8,489.0 142.9,488.9 145.0,488.9 147.0,488.8 149.1,488.8 151.2,488.8 153.3,488.7 155.4,488.7 157.5,488.6 161.6,488.5 163.7,488.5 165.8,488.4 167.9,488.3 169.9,488.3 172.0,488.3 174.1,488.2 176.2,488.2 178.3,488.1 180.4,488.0 182.4,488.0 184.5,487.9 186.6,487.8 188.7,487.8 190.8,487.7 192.8,487.7 194.9,487.6 197.0,487.6 199.1,487.5 201.2,487.4 203.3,487.4 205.3,487.4 207.4,487.3 211.6,487.3 213.7,487.2 215.8,487.1 217.8,487.0 219.9,486.9 222.0,486.8 224.1,486.8 226.2,486.7 228.2,486.5 230.3,486.4 232.4,486.3 234.5,486.2 236.6,486.2 238.7,486.2 240.7,486.1 242.8,486.1 244.9,486.0 247.0,485.9 249.1,485.9 251.2,485.8 253.2,485.8 255.3,485.7 257.4,485.6 259.5,485.5 261.6,485.5 263.6,485.4 265.7,485.3 267.8,485.3 269.9,485.2 272.0,485.2 274.1,485.1 276.1,485.1 278.2,485.1 280.3,485.0 282.4,484.9 284.5,484.9 286.5,484.8 288.6,484.7 290.7,484.6 292.8,484.6 294.9,484.5 297.0,484.5 299.0,484.4 301.1,484.4 303.2,484.2 305.3,484.1 307.4,484.1 309.5,484.0 311.5,484.0 313.6,483.9 315.7,483.8 317.8,483.7 319.9,483.6 321.9,483.6 326.1,483.5 328.2,483.5 330.3,483.4 332.4,483.3 334.4,483.2 336.5,483.2 338.6,483.1 340.7,483.0 342.8,483.0 344.8,482.9 346.9,482.8 349.0,482.7 351.1,482.6 353.2,482.5 355.3,482.4 357.3,482.3 359.4,482.2 361.5,482.0 363.6,482.0 365.7,481.9 367.8,481.8 369.8,481.8 371.9,481.7 374.0,481.6 376.1,481.5 378.2,481.5 380.2,481.4 382.3,481.3 384.4,481.3 386.5,481.3 388.6,481.1 390.7,480.9 392.7,480.8 394.8,480.7 396.9,480.6 399.0,480.5 401.1,480.5 403.2,480.4 405.2,480.3 407.3,480.2 409.4,480.1 411.5,480.0 413.6,479.9 415.6,479.9 417.7,479.8 419.8,479.7 421.9,479.6 424.0,479.5 426.1,479.4 428.1,479.2 430.2,479.1 432.3,479.0 434.4,478.9 436.5,478.8 438.5,478.6 440.6,478.6 444.8,478.4 446.9,478.3 449.0,478.1 451.0,478.1 453.1,478.0 455.2,478.0 457.3,477.9 459.4,477.8 461.5,477.6 463.5,477.4 465.6,477.3 467.7,477.3 469.8,477.2 471.9,477.1 473.9,477.0 476.0,476.9 478.1,476.7 480.2,476.6 482.3,476.5 484.4,476.5 486.4,476.4 488.5,476.2 490.6,476.1 492.7,476.0 494.8,475.9 496.8,475.8 498.9,475.8 501.0,475.7 503.1,475.6 505.2,475.4 507.3,475.2 509.3,475.1 511.4,475.0 513.5,474.9 515.6,474.9 517.7,474.7 519.8,474.7 521.8,474.5 523.9,474.5 526.0,474.4 528.1,474.3 530.2,474.3 532.2,474.2 534.3,474.2 536.4,474.0 538.5,473.8 540.6,473.8 542.7,473.6 544.7,473.6 546.8,473.5 548.9,473.4 551.0,473.2 553.1,473.2 555.2,473.0 557.2,473.0 559.3,472.9 561.4,472.8 563.5,472.7 565.6,472.7 567.6,472.6 569.7,472.5 571.8,472.5 573.9,472.4 576.0,472.2 578.1,472.2 580.1,472.1 582.2,472.1 584.3,472.0 586.4,472.0 588.5,471.9 590.5,471.8 592.6,471.7 594.7,471.5 596.8,471.5 598.9,471.3 601.0,471.3 603.0,471.2 605.1,471.1 607.2,471.0 609.3,471.0 611.4,470.9 613.5,470.7 615.5,470.6 617.6,470.5 619.7,470.5 621.8,470.4 623.9,470.2 625.9,470.1 628.0,470.0 630.1,469.9 632.2,469.9 634.3,469.8 636.4,469.7 638.4,469.6 640.5,469.4 642.6,469.4 644.7,469.3 646.8,469.2 648.8,469.0 650.9,468.9 653.0,468.8 655.1,468.6 657.2,468.5 659.3,468.3 661.3,468.2 663.4,468.1 665.5,468.0 667.6,467.8 669.7,467.7 671.8,467.5 673.8,467.5 675.9,467.3 678.0,467.2 680.1,467.0 682.2,466.9 684.2,466.8 686.3,466.7 688.4,466.6 690.5,466.5 692.6,466.4 694.7,466.3 696.7,466.2 698.8,466.1 700.9,466.1 703.0,466.0 705.1,465.9 707.2,465.8 709.2,465.8 711.3,465.7 713.4,465.4 715.5,465.3 717.6,465.3 719.6,465.2 721.7,465.1 723.8,465.0 725.9,465.0 728.0,464.8 730.1,464.6 732.1,464.5 734.2,464.3 736.3,464.2 738.4,464.0 740.5,463.9 742.5,463.8 744.6,463.7 746.7,463.6 748.8,463.3 750.9,463.2 753.0,463.2 755.0,463.0 757.1,462.9 759.2,462.7 761.3,462.5 763.4,462.4 765.5,462.3 767.5,462.1 769.6,462.0 771.7,461.9 773.8,461.7 775.9,461.5 777.9,461.4 780.0,461.2 782.1,461.0 784.2,460.7 786.3,460.6 788.4,460.5 790.4,460.4 792.5,460.1 794.6,460.0 796.7,459.7 798.8,459.5 800.8,459.3 802.9,459.1 805.0,458.8 807.1,458.6 809.2,458.5 811.3,458.3 813.3,458.0 815.4,457.7 817.5,457.6 819.6,457.3 821.7,457.2 823.8,456.9 825.8,456.5 827.9,456.1 830.0,455.7" fill="none" stroke="#d95f02" stroke-width="3"/>
<rect x="858" y="114" width="14" height="14" fill="#d95f02"/>
<text x="878" y="126" class="small">2 臨行前快速投保客</text>
</svg>
