<?xml version="1.0" encoding="utf-8" standalone="no"?>
<!DOCTYPE svg PUBLIC "-//W3C//DTD SVG 1.1//EN"
  "http://www.w3.org/Graphics/SVG/1.1/DTD/svg11.dtd">
<svg xmlns:xlink="http://www.w3.org/1999/xlink" width="720pt" height="403.2pt" viewBox="0 0 720 403.2" xmlns="http://www.w3.org/2000/svg" version="1.1">
 <metadata>
  <rdf:RDF xmlns:dc="http://purl.org/dc/elements/1.1/" xmlns:cc="http://creativecommons.org/ns#" xmlns:rdf="http://www.w3.org/1999/02/22-rdf-syntax-ns#">
   <cc:Work>
    <dc:type rdf:resource="http://purl.org/dc/dcmitype/StillImage"/>
    <dc:date>2026-05-27T15:41:33.658819</dc:date>
    <dc:format>image/svg+xml</dc:format>
    <dc:creator>
     <cc:Agent>
      <dc:title>Matplotlib v3.10.6, https://matplotlib.org/</dc:title>
     </cc:Agent>
    </dc:creator>
   </cc:Work>
  </rdf:RDF>
 </metadata>
 <defs>
  <style type="text/css">*{stroke-linejoin: round; stroke-linecap: butt}</style>
 </defs>
 <g id="figure_1">
  <g id="patch_1">
   <path d="M 0 403.2 
L 720 403.2 
L 720 0 
L 0 0 
z
" style="fill: #ffffff"/>
  </g>
  <g id="axes_1">
   <g id="patch_2">
    <path d="M 50.735 363.09625 
L 709.2 363.09625 
L 709.2 28.7025 
L 50.735 28.7025 
z
" style="fill: #ffffff"/>
   </g>
   <g id="FillBetweenPolyCollection_1">
    <defs>
     <path id="m9abd453c4b" d="M 50.735 -55.303466 
L 50.735 -55.303466 
L 52.539014 -55.303466 
L 54.343027 -55.303466 
L 56.147041 -55.303466 
L 57.951055 -55.306327 
L 59.755068 -55.306327 
L 61.559082 -55.323121 
L 63.363096 -55.398595 
L 65.16711 -55.427217 
L 66.971123 -55.441907 
L 68.775137 -55.471904 
L 70.579151 -55.518154 
L 72.383164 -55.581616 
L 74.187178 -55.646635 
L 75.991192 -55.830996 
L 77.795205 -55.98602 
L 79.599219 -56.108434 
L 81.403233 -56.321115 
L 83.207247 -56.500487 
L 85.01126 -56.62698 
L 86.815274 -56.827053 
L 88.619288 -57.13883 
L 90.423301 -57.37897 
L 92.227315 -57.490232 
L 94.031329 -57.63896 
L 95.835342 -57.750769 
L 97.639356 -57.956287 
L 99.44337 -58.275125 
L 101.247384 -58.727406 
L 103.051397 -59.162833 
L 104.855411 -59.523784 
L 106.659425 -59.904798 
L 108.463438 -60.382417 
L 110.267452 -60.72713 
L 112.071466 -61.053264 
L 113.875479 -61.572279 
L 115.679493 -61.88039 
L 117.483507 -62.150296 
L 119.287521 -62.439781 
L 121.091534 -62.884221 
L 122.895548 -63.174418 
L 124.699562 -63.581119 
L 126.503575 -64.007684 
L 128.307589 -64.395885 
L 130.111603 -64.86221 
L 131.915616 -65.115012 
L 133.71963 -65.504209 
L 135.523644 -65.815793 
L 137.327658 -66.030119 
L 139.131671 -66.361522 
L 140.935685 -66.751666 
L 142.739699 -67.103022 
L 144.543712 -67.552276 
L 146.347726 -68.060511 
L 148.15174 -68.549561 
L 149.955753 -69.058529 
L 151.759767 -69.72462 
L 153.563781 -70.253969 
L 155.367795 -70.724779 
L 157.171808 -71.274371 
L 158.975822 -71.80464 
L 160.779836 -72.31554 
L 162.583849 -72.767702 
L 164.387863 -73.279072 
L 166.191877 -73.613557 
L 167.99589 -74.105622 
L 169.799904 -74.499421 
L 171.603918 -75.011548 
L 173.407932 -75.543589 
L 175.211945 -75.977262 
L 177.015959 -76.608303 
L 178.819973 -77.081766 
L 180.623986 -77.634332 
L 182.428 -78.048887 
L 184.232014 -78.601795 
L 186.036027 -79.056111 
L 187.840041 -79.510549 
L 189.644055 -80.182544 
L 191.448068 -80.755916 
L 193.252082 -81.349244 
L 195.056096 -81.962542 
L 196.86011 -82.516651 
L 198.664123 -83.150101 
L 200.468137 -83.803544 
L 202.272151 -84.457181 
L 204.076164 -84.714727 
L 205.880178 -85.309171 
L 207.684192 -85.824478 
L 209.488205 -86.498504 
L 211.292219 -86.974396 
L 213.096233 -87.648727 
L 214.900247 -88.30339 
L 216.70426 -89.037592 
L 218.508274 -89.553632 
L 220.312288 -90.288156 
L 222.116301 -91.08244 
L 223.920315 -91.718016 
L 225.724329 -92.512665 
L 227.528342 -93.446625 
L 229.332356 -94.102539 
L 231.13637 -94.460363 
L 232.940384 -94.977285 
L 234.744397 -95.355082 
L 236.548411 -95.89202 
L 238.352425 -96.846767 
L 240.156438 -97.403814 
L 241.960452 -97.921143 
L 243.764466 -98.557948 
L 245.568479 -99.174948 
L 247.372493 -99.891579 
L 249.176507 -100.30967 
L 250.980521 -101.126059 
L 252.784534 -101.882848 
L 254.588548 -102.699525 
L 256.392562 -103.576118 
L 258.196575 -104.413017 
L 260.000589 -105.25006 
L 261.804603 -106.047373 
L 263.608616 -106.70525 
L 265.41263 -107.403088 
L 267.216644 -108.061134 
L 269.020658 -108.838927 
L 270.824671 -109.477199 
L 272.628685 -110.295089 
L 274.432699 -111.073189 
L 276.236712 -111.851393 
L 278.040726 -112.709529 
L 279.84474 -113.627668 
L 281.648753 -114.066826 
L 283.452767 -114.845407 
L 285.256781 -115.723918 
L 287.060795 -116.562606 
L 288.864808 -117.481289 
L 290.668822 -118.619826 
L 292.472836 -119.538779 
L 294.276849 -120.397906 
L 296.080863 -121.057304 
L 297.884877 -121.71676 
L 299.68889 -122.516178 
L 301.492904 -123.575533 
L 303.296918 -124.35515 
L 305.100932 -125.174829 
L 306.904945 -125.79464 
L 308.708959 -126.394502 
L 310.512973 -126.994407 
L 312.316986 -127.714349 
L 314.121 -128.554357 
L 315.925014 -129.594479 
L 317.729027 -130.354645 
L 319.533041 -131.114874 
L 321.337055 -131.795133 
L 323.141068 -132.435422 
L 324.945082 -133.255855 
L 326.749096 -134.516658 
L 328.55311 -135.477379 
L 330.357123 -136.27805 
L 332.161137 -137.118823 
L 333.965151 -138.119833 
L 335.769164 -138.960756 
L 337.573178 -139.801745 
L 339.377192 -140.682852 
L 341.181205 -141.443865 
L 342.985219 -142.525395 
L 344.789233 -143.667122 
L 346.593247 -144.468402 
L 348.39726 -145.029331 
L 350.201274 -145.830705 
L 352.005288 -146.852534 
L 353.809301 -147.613954 
L 355.613315 -148.355382 
L 357.417329 -149.197056 
L 359.221342 -150.179081 
L 361.025356 -151.101051 
L 362.82937 -151.942908 
L 364.633384 -152.784819 
L 366.437397 -153.907449 
L 368.241411 -154.809632 
L 370.045425 -155.571521 
L 371.849438 -156.373555 
L 373.653452 -157.215741 
L 375.457466 -158.278571 
L 377.261479 -159.12087 
L 379.065493 -160.12367 
L 380.869507 -160.905903 
L 382.673521 -161.427414 
L 384.477534 -162.229774 
L 386.281548 -163.092358 
L 388.085562 -163.854683 
L 389.889575 -164.637108 
L 391.693589 -165.519892 
L 393.497603 -166.382659 
L 395.301616 -167.225408 
L 397.10563 -167.947799 
L 398.909644 -168.750493 
L 400.713658 -169.593364 
L 402.517671 -170.476418 
L 404.321685 -171.259163 
L 406.125699 -172.463458 
L 407.929712 -172.985345 
L 409.733726 -173.908722 
L 411.53774 -174.611325 
L 413.341753 -175.534787 
L 415.145767 -176.458298 
L 416.949781 -177.422012 
L 418.753795 -178.345618 
L 420.557808 -179.168872 
L 422.361822 -179.952001 
L 424.165836 -180.83557 
L 425.969849 -181.478191 
L 427.773863 -182.381914 
L 429.577877 -183.165175 
L 431.38189 -184.048892 
L 433.185904 -184.711706 
L 434.989918 -185.314283 
L 436.793932 -185.936965 
L 438.597945 -186.78063 
L 440.401959 -187.604241 
L 442.205973 -188.166726 
L 444.009986 -188.789496 
L 445.814 -189.472555 
L 447.618014 -190.195819 
L 449.422027 -190.939199 
L 451.226041 -191.783067 
L 453.030055 -192.526503 
L 454.834068 -193.169495 
L 456.638082 -193.953167 
L 458.442096 -194.576106 
L 460.24611 -195.199063 
L 462.050123 -195.962711 
L 463.854137 -196.525416 
L 465.658151 -197.490086 
L 467.462164 -198.314108 
L 469.266178 -199.097961 
L 471.070192 -199.761242 
L 472.874205 -200.384341 
L 474.678219 -201.128063 
L 476.482233 -201.891909 
L 478.286247 -202.535167 
L 480.09026 -203.399573 
L 481.894274 -204.062975 
L 483.698288 -204.766603 
L 485.502301 -205.36973 
L 487.306315 -206.033186 
L 489.110329 -206.736871 
L 490.914342 -207.500894 
L 492.718356 -208.365476 
L 494.52237 -208.988797 
L 496.326384 -209.592026 
L 498.130397 -210.215378 
L 499.934411 -210.939289 
L 501.738425 -211.542564 
L 503.542438 -212.286622 
L 505.346452 -213.111144 
L 507.150466 -213.835136 
L 508.954479 -214.358031 
L 510.758493 -215.082058 
L 512.562507 -215.826216 
L 514.366521 -216.429603 
L 516.170534 -217.214026 
L 517.974548 -218.280073 
L 519.778562 -218.883514 
L 521.582575 -219.446738 
L 523.386589 -220.150784 
L 525.190603 -220.794499 
L 526.994616 -221.558929 
L 528.79863 -222.383733 
L 530.602644 -223.047616 
L 532.406658 -224.113886 
L 534.210671 -224.717452 
L 536.014685 -225.562466 
L 537.818699 -226.347144 
L 539.622712 -227.292809 
L 541.426726 -228.097654 
L 543.23074 -229.103742 
L 545.034753 -229.808023 
L 546.838767 -230.693428 
L 548.642781 -231.357499 
L 550.446795 -231.961213 
L 552.250808 -232.564938 
L 554.054822 -233.390048 
L 555.858836 -234.134679 
L 557.662849 -234.899453 
L 559.466863 -235.483109 
L 561.270877 -236.066776 
L 563.07489 -236.670581 
L 564.878904 -237.274397 
L 566.682918 -237.858097 
L 568.486932 -238.582704 
L 570.290945 -239.4281 
L 572.094959 -240.172872 
L 573.898973 -240.837143 
L 575.702986 -241.521557 
L 577.507 -242.447551 
L 579.311014 -243.35344 
L 581.115027 -244.360012 
L 582.919041 -245.06463 
L 584.723055 -245.74913 
L 586.527068 -246.634975 
L 588.331082 -247.400041 
L 590.135096 -247.923517 
L 591.93911 -248.809417 
L 593.743123 -249.594666 
L 595.547137 -250.440338 
L 597.351151 -251.245759 
L 599.155164 -252.051198 
L 600.959178 -252.59488 
L 602.763192 -253.360076 
L 604.567205 -254.044739 
L 606.371219 -255.011344 
L 608.175233 -255.776591 
L 609.979247 -256.582132 
L 611.78326 -257.226577 
L 613.587274 -257.810615 
L 615.391288 -258.394662 
L 617.195301 -259.059279 
L 618.999315 -259.965594 
L 620.803329 -260.87193 
L 622.607342 -261.657439 
L 624.411356 -262.301972 
L 626.21537 -263.369503 
L 628.019384 -264.195349 
L 629.823397 -264.920497 
L 631.627411 -265.887381 
L 633.431425 -266.531985 
L 635.235438 -267.27732 
L 637.039452 -268.284553 
L 638.843466 -268.808324 
L 640.647479 -269.533557 
L 642.451493 -270.460262 
L 644.255507 -271.386989 
L 646.059521 -272.172709 
L 647.863534 -272.83756 
L 649.667548 -273.441981 
L 651.471562 -274.630699 
L 653.275575 -275.497075 
L 655.079589 -276.141832 
L 656.883603 -276.867195 
L 658.687616 -277.61272 
L 660.49163 -278.479157 
L 662.295644 -279.204561 
L 664.099658 -280.212086 
L 665.903671 -280.997972 
L 667.707685 -282.065994 
L 669.511699 -283.174347 
L 671.315712 -284.020744 
L 673.119726 -284.847005 
L 674.92374 -285.572516 
L 676.727753 -286.439113 
L 678.531767 -287.668501 
L 680.335781 -288.595603 
L 682.139795 -289.724274 
L 683.943808 -290.752196 
L 685.747822 -292.04217 
L 687.551836 -293.070144 
L 689.355849 -294.118298 
L 691.159863 -295.509154 
L 692.963877 -296.839577 
L 694.76789 -298.532897 
L 696.571904 -299.702129 
L 698.375918 -300.97219 
L 700.179932 -302.06084 
L 701.983945 -303.330963 
L 703.787959 -304.701926 
L 705.591973 -306.456008 
L 707.395986 -308.210152 
L 709.2 -309.944194 
L 709.2 -318.49285 
L 709.2 -318.49285 
L 707.395986 -316.73296 
L 705.591973 -314.952545 
L 703.787959 -313.172067 
L 701.983945 -311.780386 
L 700.179932 -310.491 
L 698.375918 -309.385786 
L 696.571904 -308.096338 
L 694.76789 -306.909197 
L 692.963877 -305.189839 
L 691.159863 -303.838872 
L 689.355849 -302.426457 
L 687.551836 -301.362001 
L 685.747822 -300.317992 
L 683.943808 -299.00783 
L 682.139795 -297.963769 
L 680.335781 -296.817322 
L 678.531767 -295.875576 
L 676.727753 -294.62671 
L 674.92374 -293.746341 
L 673.119726 -293.009275 
L 671.315712 -292.169824 
L 669.511699 -291.309882 
L 667.707685 -290.183743 
L 665.903671 -289.098528 
L 664.099658 -288.299956 
L 662.295644 -287.276125 
L 660.49163 -286.538952 
L 658.687616 -285.658424 
L 656.883603 -284.900745 
L 655.079589 -284.163532 
L 653.275575 -283.508221 
L 651.471562 -282.627631 
L 649.667548 -281.419349 
L 647.863534 -280.804956 
L 646.059521 -280.129112 
L 644.255507 -279.330374 
L 642.451493 -278.388254 
L 640.647479 -277.446112 
L 638.843466 -276.708768 
L 637.039452 -276.176234 
L 635.235438 -275.152111 
L 633.431425 -274.394243 
L 631.627411 -273.738778 
L 629.823397 -272.755561 
L 628.019384 -272.018132 
L 626.21537 -271.178266 
L 624.411356 -270.09256 
L 622.607342 -269.437024 
L 620.803329 -268.638076 
L 618.999315 -267.716192 
L 617.195301 -266.794286 
L 615.391288 -266.118208 
L 613.587274 -265.524069 
L 611.78326 -264.92992 
L 609.979247 -264.274298 
L 608.175233 -263.454753 
L 606.371219 -262.67617 
L 604.567205 -261.692673 
L 602.763192 -260.996014 
L 600.959178 -260.217379 
L 599.155164 -259.664128 
L 597.351151 -258.844483 
L 595.547137 -258.024819 
L 593.743123 -257.164152 
L 591.93911 -256.364943 
L 590.135096 -255.46325 
L 588.331082 -254.930421 
L 586.527068 -254.151656 
L 584.723055 -253.249907 
L 582.919041 -252.553086 
L 581.115027 -251.835755 
L 579.311014 -250.810971 
L 577.507 -249.888639 
L 575.702986 -248.945786 
L 573.898973 -248.248877 
L 572.094959 -247.572453 
L 570.290945 -246.814021 
L 568.486932 -245.953078 
L 566.682918 -245.215109 
L 564.878904 -244.620622 
L 563.07489 -244.005625 
L 561.270877 -243.390616 
L 559.466863 -242.796096 
L 557.662849 -242.201566 
L 555.858836 -241.422509 
L 554.054822 -240.663937 
L 552.250808 -239.823335 
L 550.446795 -239.208247 
L 548.642781 -238.593146 
L 546.838767 -237.916522 
L 545.034753 -237.014334 
L 543.23074 -236.296666 
L 541.426726 -235.271397 
L 539.622712 -234.451158 
L 537.818699 -233.487348 
L 536.014685 -232.687568 
L 534.210671 -231.826243 
L 532.406658 -231.210996 
L 530.602644 -230.124028 
L 528.79863 -229.447216 
L 526.994616 -228.606308 
L 525.190603 -227.826907 
L 523.386589 -227.170554 
L 521.582575 -226.452651 
L 519.778562 -225.878315 
L 517.974548 -225.262943 
L 516.170534 -224.175752 
L 514.366521 -223.375718 
L 512.562507 -222.760291 
L 510.758493 -222.001246 
L 508.954479 -221.262695 
L 507.150466 -220.729286 
L 505.346452 -219.990701 
L 503.542438 -219.149511 
L 501.738425 -218.390366 
L 499.934411 -217.774827 
L 498.130397 -217.036162 
L 496.326384 -216.400073 
L 494.52237 -215.784488 
L 492.718356 -215.148368 
L 490.914342 -214.265983 
L 489.110329 -213.486176 
L 487.306315 -212.767912 
L 485.502301 -212.090673 
L 483.698288 -211.474986 
L 481.894274 -210.756665 
L 480.09026 -210.079372 
L 478.286247 -209.196811 
L 476.482233 -208.540002 
L 474.678219 -207.760017 
L 472.874205 -207.000535 
L 471.070192 -206.364194 
L 469.266178 -205.68678 
L 467.462164 -204.886175 
L 465.658151 -204.044484 
L 463.854137 -203.059052 
L 462.050123 -202.484198 
L 460.24611 -201.704015 
L 458.442096 -201.067531 
L 456.638082 -200.43103 
L 454.834068 -199.630244 
L 453.030055 -198.973168 
L 451.226041 -198.2134 
L 449.422027 -197.350929 
L 447.618014 -196.591106 
L 445.814 -195.851793 
L 444.009986 -195.15353 
L 442.205973 -194.516859 
L 440.401959 -193.941784 
L 438.597945 -193.099684 
L 436.793932 -192.237009 
L 434.989918 -191.60025 
L 433.185904 -190.984014 
L 431.38189 -190.306132 
L 429.577877 -189.402256 
L 427.773863 -188.601059 
L 425.969849 -187.676561 
L 424.165836 -187.019115 
L 422.361822 -186.11509 
L 420.557808 -185.313761 
L 418.753795 -184.471303 
L 416.949781 -183.526062 
L 415.145767 -182.539674 
L 413.341753 -181.594336 
L 411.53774 -180.648952 
L 409.733726 -179.929605 
L 407.929712 -178.984134 
L 406.125699 -178.449716 
L 404.321685 -177.216383 
L 402.517671 -176.414671 
L 400.713658 -175.510131 
L 398.909644 -174.646663 
L 397.10563 -173.824272 
L 395.301616 -173.084087 
L 393.497603 -172.220496 
L 391.693589 -171.336297 
L 389.889575 -170.431487 
L 388.085562 -169.629454 
L 386.281548 -168.847948 
L 384.477534 -167.963567 
L 382.673521 -167.140842 
L 380.869507 -166.606048 
L 379.065493 -165.803822 
L 377.261479 -164.775266 
L 375.457466 -163.911226 
L 373.653452 -162.820818 
L 371.849438 -161.956665 
L 370.045425 -161.133614 
L 368.241411 -160.351673 
L 366.437397 -159.425634 
L 364.633384 -158.273146 
L 362.82937 -157.408718 
L 361.025356 -156.544235 
L 359.221342 -155.597357 
L 357.417329 -154.588653 
L 355.613315 -153.723989 
L 353.809301 -152.962213 
L 352.005288 -152.179801 
L 350.201274 -151.129648 
L 348.39726 -150.305936 
L 346.593247 -149.729306 
L 344.789233 -148.905501 
L 342.985219 -147.731482 
L 341.181205 -146.619147 
L 339.377192 -145.836329 
L 337.573178 -144.929843 
L 335.769164 -144.064493 
L 333.965151 -143.199076 
L 332.161137 -142.16873 
L 330.357123 -141.303164 
L 328.55311 -140.47875 
L 326.749096 -139.489369 
L 324.945082 -138.190663 
L 323.141068 -137.345384 
L 321.337055 -136.685605 
L 319.533041 -135.984541 
L 317.729027 -135.20094 
L 315.925014 -134.417275 
L 314.121 -133.344786 
L 312.316986 -132.478455 
L 310.512973 -131.735821 
L 308.708959 -131.116912 
L 306.904945 -130.49796 
L 305.100932 -129.858331 
L 303.296918 -129.012297 
L 301.492904 -128.207456 
L 299.68889 -127.113574 
L 297.884877 -126.287907 
L 296.080863 -125.606668 
L 294.276849 -124.925371 
L 292.472836 -124.037531 
L 290.668822 -123.087637 
L 288.864808 -121.910427 
L 287.060795 -120.960262 
L 285.256781 -120.092611 
L 283.452767 -119.183529 
L 281.648753 -118.377652 
L 279.84474 -117.923013 
L 278.040726 -116.972304 
L 276.236712 -116.083474 
L 274.432699 -115.27722 
L 272.628685 -114.470863 
L 270.824671 -113.623041 
L 269.020658 -112.961244 
L 267.216644 -112.15458 
L 265.41263 -111.47193 
L 263.608616 -110.74782 
L 261.804603 -110.065001 
L 260.000589 -109.23723 
L 258.196575 -108.367933 
L 256.392562 -107.498492 
L 254.588548 -106.587492 
L 252.784534 -105.738457 
L 250.980521 -104.951415 
L 249.176507 -104.102093 
L 247.372493 -103.667014 
L 245.568479 -102.921069 
L 243.764466 -102.278628 
L 241.960452 -101.615365 
L 240.156438 -101.076388 
L 238.352425 -100.495876 
L 236.548411 -99.500521 
L 234.744397 -98.940527 
L 232.940384 -98.546409 
L 231.13637 -98.007025 
L 229.332356 -97.633561 
L 227.528342 -96.94878 
L 225.724329 -95.973266 
L 223.920315 -95.14283 
L 222.116301 -94.478338 
L 220.312288 -93.647537 
L 218.508274 -92.878858 
L 216.70426 -92.338593 
L 214.900247 -91.569591 
L 213.096233 -90.883559 
L 211.292219 -90.176568 
L 209.488205 -89.677409 
L 207.684192 -88.970114 
L 205.880178 -88.429115 
L 204.076164 -87.804746 
L 202.272151 -87.534139 
L 200.468137 -86.847081 
L 198.664123 -86.159829 
L 196.86011 -85.493212 
L 195.056096 -84.909761 
L 193.252082 -84.263619 
L 191.448068 -83.638134 
L 189.644055 -83.033319 
L 187.840041 -82.323993 
L 186.036027 -81.844007 
L 184.232014 -81.363899 
L 182.428 -80.779248 
L 180.623986 -80.340634 
L 178.819973 -79.75564 
L 177.015959 -79.254053 
L 175.211945 -78.585026 
L 173.407932 -78.124903 
L 171.603918 -77.560012 
L 169.799904 -77.015834 
L 167.99589 -76.597091 
L 166.191877 -76.073479 
L 164.387863 -75.717303 
L 162.583849 -75.172368 
L 160.779836 -74.690107 
L 158.975822 -74.144703 
L 157.171808 -73.57804 
L 155.367795 -72.990074 
L 153.563781 -72.485833 
L 151.759767 -71.918251 
L 149.955753 -71.203021 
L 148.15174 -70.655686 
L 146.347726 -70.129058 
L 144.543712 -69.580989 
L 142.739699 -69.095821 
L 140.935685 -68.71589 
L 139.131671 -68.293492 
L 137.327658 -67.934235 
L 135.523644 -67.701664 
L 133.71963 -67.363215 
L 131.915616 -66.939871 
L 130.111603 -66.664522 
L 128.307589 -66.155798 
L 126.503575 -65.731458 
L 124.699562 -65.26423 
L 122.895548 -64.817764 
L 121.091534 -64.498555 
L 119.287521 -64.008575 
L 117.483507 -63.688656 
L 115.679493 -63.389784 
L 113.875479 -63.047865 
L 112.071466 -62.469953 
L 110.267452 -62.105432 
L 108.463438 -61.718861 
L 106.659425 -61.180811 
L 104.855411 -60.749291 
L 103.051397 -60.338335 
L 101.247384 -59.839352 
L 99.44337 -59.3166 
L 97.639356 -58.944793 
L 95.835342 -58.703425 
L 94.031329 -58.571479 
L 92.227315 -58.395201 
L 90.423301 -58.262711 
L 88.619288 -57.974723 
L 86.815274 -57.595881 
L 85.01126 -57.349093 
L 83.207247 -57.191225 
L 81.403233 -56.964378 
L 79.599219 -56.689624 
L 77.795205 -56.527723 
L 75.991192 -56.317243 
L 74.187178 -56.055013 
L 72.383164 -55.957716 
L 70.579151 -55.858953 
L 68.775137 -55.783643 
L 66.971123 -55.732689 
L 65.16711 -55.706945 
L 63.363096 -55.654831 
L 61.559082 -55.492416 
L 59.755068 -55.447673 
L 57.951055 -55.447673 
L 56.147041 -55.303466 
L 54.343027 -55.303466 
L 52.539014 -55.303466 
L 50.735 -55.303466 
z
"/>
    </defs>
    <g clip-path="url(#p7e3517e076)">
     <use xlink:href="#m9abd453c4b" x="0" y="403.2" style="fill: #2f6fed; fill-opacity: 0.14"/>
    </g>
   </g>
   <g id="FillBetweenPolyCollection_2">
    <defs>
     <path id="m440a8bf7a9" d="M 50.735 -55.303466 
L 50.735 -55.303466 
L 52.539014 -55.303466 
L 54.343027 -55.303466 
L 56.147041 -55.303466 
L 57.951055 -55.351129 
L 59.755068 -55.351129 
L 61.559082 -55.351129 
L 63.363096 -55.351129 
L 65.16711 -55.472722 
L 66.971123 -55.472722 
L 68.775137 -55.472722 
L 70.579151 -55.472722 
L 72.383164 -55.472722 
L 74.187178 -55.630881 
L 75.991192 -56.007744 
L 77.795205 -56.007744 
L 79.599219 -56.007744 
L 81.403233 -56.215694 
L 83.207247 -56.432839 
L 85.01126 -56.657462 
L 86.815274 -56.657462 
L 88.619288 -56.657462 
L 90.423301 -56.888322 
L 92.227315 -57.124491 
L 94.031329 -57.124491 
L 95.835342 -57.365249 
L 97.639356 -57.365249 
L 99.44337 -57.610029 
L 101.247384 -57.85837 
L 103.051397 -57.85837 
L 104.855411 -58.109894 
L 106.659425 -58.621279 
L 108.463438 -59.405748 
L 110.267452 -59.405748 
L 112.071466 -59.405748 
L 113.875479 -59.671161 
L 115.679493 -60.207055 
L 117.483507 -60.477314 
L 119.287521 -60.748987 
L 121.091534 -61.02199 
L 122.895548 -61.296247 
L 124.699562 -61.296247 
L 126.503575 -61.848254 
L 128.307589 -62.125883 
L 130.111603 -62.404524 
L 131.915616 -62.404524 
L 133.71963 -63.246054 
L 135.523644 -63.528295 
L 137.327658 -63.811339 
L 139.131671 -64.379709 
L 140.935685 -64.664974 
L 142.739699 -64.950923 
L 144.543712 -65.524773 
L 146.347726 -65.524773 
L 148.15174 -65.812627 
L 149.955753 -66.101072 
L 151.759767 -66.679657 
L 153.563781 -66.679657 
L 155.367795 -67.843112 
L 157.171808 -68.427732 
L 158.975822 -68.427732 
L 160.779836 -69.014133 
L 162.583849 -70.191899 
L 164.387863 -71.672562 
L 166.191877 -72.267228 
L 167.99589 -72.267228 
L 169.799904 -72.565044 
L 171.603918 -72.863172 
L 173.407932 -73.161606 
L 175.211945 -73.460338 
L 177.015959 -74.058673 
L 178.819973 -74.358263 
L 180.623986 -74.658128 
L 182.428 -74.958262 
L 184.232014 -74.958262 
L 186.036027 -75.258659 
L 187.840041 -75.559315 
L 189.644055 -75.559315 
L 191.448068 -75.559315 
L 193.252082 -75.559315 
L 195.056096 -75.860223 
L 196.86011 -75.860223 
L 198.664123 -76.462781 
L 200.468137 -77.066295 
L 202.272151 -77.973283 
L 204.076164 -78.57904 
L 205.880178 -80.401258 
L 207.684192 -81.010224 
L 209.488205 -81.010224 
L 211.292219 -81.61993 
L 213.096233 -82.230351 
L 214.900247 -82.841468 
L 216.70426 -83.7594 
L 218.508274 -84.678786 
L 220.312288 -85.292486 
L 222.116301 -85.906789 
L 223.920315 -86.829336 
L 225.724329 -88.369704 
L 227.528342 -88.369704 
L 229.332356 -88.369704 
L 231.13637 -89.295523 
L 232.940384 -89.604386 
L 234.744397 -89.604386 
L 236.548411 -90.222487 
L 238.352425 -91.46015 
L 240.156438 -91.769862 
L 241.960452 -92.389631 
L 243.764466 -92.699686 
L 245.568479 -92.699686 
L 247.372493 -93.009853 
L 249.176507 -93.941013 
L 250.980521 -94.873136 
L 252.784534 -96.740154 
L 254.588548 -97.05167 
L 256.392562 -97.986794 
L 258.196575 -99.859545 
L 260.000589 -99.859545 
L 261.804603 -101.422608 
L 263.608616 -101.735477 
L 265.41263 -102.048429 
L 267.216644 -103.301059 
L 269.020658 -103.614417 
L 270.824671 -103.927855 
L 272.628685 -104.241372 
L 274.432699 -104.868637 
L 276.236712 -105.496208 
L 278.040726 -105.810107 
L 279.84474 -107.066441 
L 281.648753 -107.380706 
L 283.452767 -108.009451 
L 285.256781 -108.009451 
L 287.060795 -108.009451 
L 288.864808 -108.953094 
L 290.668822 -110.84222 
L 292.472836 -112.102954 
L 294.276849 -112.102954 
L 296.080863 -113.364706 
L 297.884877 -114.627445 
L 299.68889 -115.57513 
L 301.492904 -115.891143 
L 303.296918 -117.472073 
L 305.100932 -118.104841 
L 306.904945 -119.37104 
L 308.708959 -120.955 
L 310.512973 -121.27195 
L 312.316986 -122.22311 
L 314.121 -124.44425 
L 315.925014 -127.303491 
L 317.729027 -129.529935 
L 319.533041 -129.848178 
L 321.337055 -131.440043 
L 323.141068 -132.395677 
L 324.945082 -133.989236 
L 326.749096 -135.902851 
L 328.55311 -136.541042 
L 330.357123 -138.456544 
L 332.161137 -140.053839 
L 333.965151 -141.01266 
L 335.769164 -141.33234 
L 337.573178 -141.33234 
L 339.377192 -142.291597 
L 341.181205 -142.61142 
L 342.985219 -143.571103 
L 344.789233 -144.5311 
L 346.593247 -145.171271 
L 348.39726 -145.811578 
L 350.201274 -146.452019 
L 352.005288 -148.053706 
L 353.809301 -149.335644 
L 355.613315 -149.976806 
L 357.417329 -150.938786 
L 359.221342 -152.542711 
L 361.025356 -153.505435 
L 362.82937 -154.147402 
L 364.633384 -154.468431 
L 366.437397 -155.752842 
L 368.241411 -156.074018 
L 370.045425 -156.716458 
L 371.849438 -157.680335 
L 373.653452 -158.965903 
L 375.457466 -160.895096 
L 377.261479 -161.216724 
L 379.065493 -162.181773 
L 380.869507 -164.756414 
L 382.673521 -165.078363 
L 384.477534 -166.044364 
L 386.281548 -167.332725 
L 388.085562 -168.299262 
L 389.889575 -168.621491 
L 391.693589 -169.910654 
L 393.497603 -170.877784 
L 395.301616 -171.522659 
L 397.10563 -172.16763 
L 398.909644 -173.457858 
L 400.713658 -174.103114 
L 402.517671 -175.393904 
L 404.321685 -177.007909 
L 406.125699 -177.330778 
L 407.929712 -178.299521 
L 409.733726 -178.299521 
L 411.53774 -179.914536 
L 413.341753 -180.883808 
L 415.145767 -181.853275 
L 416.949781 -181.853275 
L 418.753795 -182.176474 
L 420.557808 -182.822936 
L 422.361822 -184.116113 
L 424.165836 -185.409625 
L 425.969849 -187.674064 
L 427.773863 -187.674064 
L 429.577877 -189.292127 
L 431.38189 -189.6158 
L 433.185904 -189.939492 
L 434.989918 -190.263204 
L 436.793932 -191.558248 
L 438.597945 -191.558248 
L 440.401959 -192.853602 
L 442.205973 -192.853602 
L 444.009986 -193.501395 
L 445.814 -195.121208 
L 447.618014 -195.445228 
L 449.422027 -198.038049 
L 451.226041 -198.686438 
L 453.030055 -200.632038 
L 454.834068 -200.956367 
L 456.638082 -201.280714 
L 458.442096 -202.253862 
L 460.24611 -203.227166 
L 462.050123 -204.200628 
L 463.854137 -204.52515 
L 465.658151 -204.849688 
L 467.462164 -205.823408 
L 469.266178 -206.472639 
L 471.070192 -206.79728 
L 472.874205 -208.096011 
L 474.678219 -209.070235 
L 476.482233 -209.395009 
L 478.286247 -209.395009 
L 480.09026 -210.044607 
L 481.894274 -211.019126 
L 483.698288 -211.668887 
L 485.502301 -211.668887 
L 487.306315 -211.668887 
L 489.110329 -212.64365 
L 490.914342 -214.268573 
L 492.718356 -214.268573 
L 494.52237 -214.593605 
L 496.326384 -215.243717 
L 498.130397 -215.893891 
L 499.934411 -217.519599 
L 501.738425 -217.844787 
L 503.542438 -217.844787 
L 505.346452 -218.16999 
L 507.150466 -219.145691 
L 508.954479 -219.470955 
L 510.758493 -220.772162 
L 512.562507 -222.073608 
L 514.366521 -222.724421 
L 516.170534 -224.026222 
L 517.974548 -225.328256 
L 519.778562 -226.630522 
L 521.582575 -226.956124 
L 523.386589 -227.607371 
L 525.190603 -228.258675 
L 526.994616 -229.887181 
L 528.79863 -230.212924 
L 530.602644 -230.538681 
L 532.406658 -231.516035 
L 534.210671 -232.167674 
L 536.014685 -232.493513 
L 537.818699 -233.471114 
L 539.622712 -233.797009 
L 541.426726 -234.448838 
L 543.23074 -235.100721 
L 545.034753 -235.100721 
L 546.838767 -236.404647 
L 548.642781 -237.708786 
L 550.446795 -239.013135 
L 552.250808 -239.991534 
L 554.054822 -241.296247 
L 555.858836 -241.622457 
L 557.662849 -241.94868 
L 559.466863 -242.601165 
L 561.270877 -243.2537 
L 563.07489 -244.885259 
L 564.878904 -246.51713 
L 566.682918 -247.82285 
L 568.486932 -249.128765 
L 570.290945 -250.108329 
L 572.094959 -251.088002 
L 573.898973 -251.741177 
L 575.702986 -253.04767 
L 577.507 -254.027665 
L 579.311014 -254.681053 
L 581.115027 -255.334488 
L 582.919041 -255.987969 
L 584.723055 -258.929207 
L 586.527068 -259.582941 
L 588.331082 -259.909825 
L 590.135096 -261.544415 
L 591.93911 -261.871367 
L 593.743123 -262.525303 
L 595.547137 -262.852288 
L 597.351151 -263.506291 
L 599.155164 -264.81443 
L 600.959178 -266.122745 
L 602.763192 -266.776967 
L 604.567205 -267.431233 
L 606.371219 -268.412712 
L 608.175233 -270.703205 
L 609.979247 -271.357727 
L 611.78326 -272.339589 
L 613.587274 -272.994216 
L 615.391288 -273.321545 
L 617.195301 -273.648884 
L 618.999315 -273.976234 
L 620.803329 -274.630965 
L 622.607342 -275.285737 
L 624.411356 -275.94055 
L 626.21537 -276.595404 
L 628.019384 -277.577762 
L 629.823397 -278.232718 
L 631.627411 -278.560211 
L 633.431425 -279.542751 
L 635.235438 -280.525381 
L 637.039452 -280.852945 
L 638.843466 -281.180518 
L 640.647479 -281.835694 
L 642.451493 -282.49091 
L 644.255507 -283.146166 
L 646.059521 -283.146166 
L 647.863534 -285.112167 
L 649.667548 -286.095299 
L 651.471562 -287.078518 
L 653.275575 -287.406277 
L 655.079589 -288.389611 
L 656.883603 -289.700857 
L 658.687616 -291.012254 
L 660.49163 -292.323802 
L 662.295644 -294.291403 
L 664.099658 -295.603322 
L 665.903671 -297.243427 
L 667.707685 -297.571475 
L 669.511699 -297.899532 
L 671.315712 -298.555674 
L 673.119726 -299.868066 
L 674.92374 -300.524316 
L 676.727753 -301.836923 
L 678.531767 -302.165097 
L 680.335781 -303.477881 
L 682.139795 -304.790805 
L 683.943808 -305.44732 
L 685.747822 -306.760454 
L 687.551836 -308.073726 
L 689.355849 -308.730414 
L 691.159863 -310.700682 
L 692.963877 -312.342806 
L 694.76789 -313.328181 
L 696.571904 -313.328181 
L 698.375918 -314.97064 
L 700.179932 -316.613306 
L 701.983945 -317.270431 
L 703.787959 -317.927588 
L 705.591973 -318.584777 
L 707.395986 -322.199902 
L 709.2 -322.857302 
L 709.2 -359.297784 
L 709.2 -359.297784 
L 707.395986 -358.602286 
L 705.591973 -354.776472 
L 703.787959 -354.080763 
L 701.983945 -353.385023 
L 700.179932 -352.689249 
L 698.375918 -350.94967 
L 696.571904 -349.209884 
L 694.76789 -349.209884 
L 692.963877 -348.165912 
L 691.159863 -346.42579 
L 689.355849 -344.337364 
L 687.551836 -343.641154 
L 685.747822 -342.24863 
L 683.943808 -340.855968 
L 682.139795 -340.159584 
L 680.335781 -338.766713 
L 678.531767 -337.3737 
L 676.727753 -337.025425 
L 674.92374 -335.632235 
L 673.119726 -334.935587 
L 671.315712 -333.542182 
L 669.511699 -332.845426 
L 667.707685 -332.497034 
L 665.903671 -332.148634 
L 664.099658 -330.406493 
L 662.295644 -329.012615 
L 660.49163 -326.921521 
L 658.687616 -325.527272 
L 656.883603 -324.132873 
L 655.079589 -322.738322 
L 653.275575 -321.692308 
L 651.471562 -321.343618 
L 649.667548 -320.297489 
L 647.863534 -319.251274 
L 646.059521 -317.15858 
L 644.255507 -317.15858 
L 642.451493 -316.460937 
L 640.647479 -315.763255 
L 638.843466 -315.065533 
L 637.039452 -314.716657 
L 635.235438 -314.367771 
L 633.431425 -313.321053 
L 631.627411 -312.274245 
L 629.823397 -311.925289 
L 628.019384 -311.227347 
L 626.21537 -310.180357 
L 624.411356 -309.482313 
L 622.607342 -308.784227 
L 620.803329 -308.086101 
L 618.999315 -307.387933 
L 617.195301 -307.038834 
L 615.391288 -306.689724 
L 613.587274 -306.340604 
L 611.78326 -305.642332 
L 609.979247 -304.594846 
L 608.175233 -303.89647 
L 606.371219 -301.451818 
L 604.567205 -300.403949 
L 602.763192 -299.705316 
L 600.959178 -299.00664 
L 599.155164 -297.609157 
L 597.351151 -296.211499 
L 595.547137 -295.512604 
L 593.743123 -295.163139 
L 591.93911 -294.464177 
L 590.135096 -294.11468 
L 588.331082 -292.367023 
L 586.527068 -292.017458 
L 584.723055 -291.318293 
L 582.919041 -288.171487 
L 581.115027 -287.47207 
L 579.311014 -286.772607 
L 577.507 -286.073096 
L 575.702986 -285.023742 
L 573.898973 -283.624438 
L 572.094959 -282.924714 
L 570.290945 -281.875039 
L 568.486932 -280.825256 
L 566.682918 -279.425374 
L 564.878904 -278.025296 
L 563.07489 -276.274921 
L 561.270877 -274.524233 
L 559.466863 -273.82387 
L 557.662849 -273.123455 
L 555.858836 -272.773229 
L 554.054822 -272.42299 
L 552.250808 -271.021906 
L 550.446795 -269.970957 
L 548.642781 -268.569509 
L 546.838767 -267.16785 
L 545.034753 -265.765979 
L 543.23074 -265.765979 
L 541.426726 -265.064964 
L 539.622712 -264.363894 
L 537.818699 -264.013339 
L 536.014685 -262.961592 
L 534.210671 -262.610983 
L 532.406658 -261.909722 
L 530.602644 -260.857729 
L 528.79863 -260.507036 
L 526.994616 -260.15633 
L 525.190603 -258.40259 
L 523.386589 -257.700995 
L 521.582575 -256.999343 
L 519.778562 -256.648496 
L 517.974548 -255.244965 
L 516.170534 -253.841202 
L 514.366521 -252.437206 
L 512.562507 -251.73512 
L 510.758493 -250.330769 
L 508.954479 -248.926179 
L 507.150466 -248.574994 
L 505.346452 -247.521347 
L 503.542438 -247.170101 
L 501.738425 -247.170101 
L 499.934411 -246.818839 
L 498.130397 -245.062301 
L 496.326384 -244.359577 
L 494.52237 -243.65679 
L 492.718356 -243.305373 
L 490.914342 -243.305373 
L 489.110329 -241.54805 
L 487.306315 -240.493465 
L 485.502301 -240.493465 
L 483.698288 -240.493465 
L 481.894274 -239.790327 
L 480.09026 -238.735499 
L 478.286247 -238.032199 
L 476.482233 -238.032199 
L 474.678219 -237.680524 
L 472.874205 -236.6254 
L 471.070192 -235.218335 
L 469.266178 -234.866527 
L 467.462164 -234.16286 
L 465.658151 -233.107231 
L 463.854137 -232.755321 
L 462.050123 -232.403394 
L 460.24611 -231.347508 
L 458.442096 -230.291465 
L 456.638082 -229.235265 
L 454.834068 -228.883163 
L 453.030055 -228.531043 
L 451.226041 -226.417949 
L 449.422027 -225.71344 
L 447.618014 -222.894669 
L 445.814 -222.542239 
L 444.009986 -220.779808 
L 442.205973 -220.074702 
L 440.401959 -220.074702 
L 438.597945 -218.664261 
L 436.793932 -218.664261 
L 434.989918 -217.253509 
L 433.185904 -216.900772 
L 431.38189 -216.548016 
L 429.577877 -216.195239 
L 427.773863 -214.431058 
L 425.969849 -214.431058 
L 424.165836 -211.960355 
L 422.361822 -210.548072 
L 420.557808 -209.135454 
L 418.753795 -208.429018 
L 416.949781 -208.075768 
L 415.145767 -208.075768 
L 413.341753 -207.01589 
L 411.53774 -205.955816 
L 409.733726 -204.188588 
L 407.929712 -204.188588 
L 406.125699 -203.127984 
L 404.321685 -202.774405 
L 402.517671 -201.006167 
L 400.713658 -199.591163 
L 398.909644 -198.883522 
L 397.10563 -197.467956 
L 395.301616 -196.76003 
L 393.497603 -196.052008 
L 391.693589 -194.989794 
L 389.889575 -193.573164 
L 388.085562 -193.218944 
L 386.281548 -192.156136 
L 384.477534 -190.738704 
L 382.673521 -189.675361 
L 380.869507 -189.320861 
L 379.065493 -186.483918 
L 377.261479 -185.419623 
L 375.457466 -185.064803 
L 373.653452 -182.935308 
L 371.849438 -181.515085 
L 370.045425 -180.449619 
L 368.241411 -179.739164 
L 366.437397 -179.383892 
L 364.633384 -177.962513 
L 362.82937 -177.607094 
L 361.025356 -176.896166 
L 359.221342 -175.829547 
L 357.417329 -174.051236 
L 355.613315 -172.983874 
L 353.809301 -172.272142 
L 352.005288 -170.848291 
L 350.201274 -169.067742 
L 348.39726 -168.35529 
L 346.593247 -167.642703 
L 344.789233 -166.929979 
L 342.985219 -165.860636 
L 341.181205 -164.790979 
L 339.377192 -164.434356 
L 337.573178 -163.364273 
L 335.769164 -163.364273 
L 333.965151 -163.007506 
L 332.161137 -161.936989 
L 330.357123 -160.152052 
L 328.55311 -158.008878 
L 326.749096 -157.294176 
L 324.945082 -155.149117 
L 323.141068 -153.360448 
L 321.337055 -152.286746 
L 319.533041 -150.496385 
L 317.729027 -150.138183 
L 315.925014 -147.629513 
L 314.121 -144.400755 
L 312.316986 -141.886787 
L 310.512973 -140.808617 
L 308.708959 -140.449123 
L 306.904945 -138.650868 
L 305.100932 -137.211296 
L 303.296918 -136.491179 
L 301.492904 -134.689897 
L 299.68889 -134.329468 
L 297.884877 -133.247828 
L 296.080863 -131.804801 
L 294.276849 -130.360789 
L 292.472836 -130.360789 
L 290.668822 -128.915761 
L 288.864808 -126.746247 
L 287.060795 -125.660572 
L 285.256781 -125.660572 
L 283.452767 -125.660572 
L 281.648753 -124.936439 
L 279.84474 -124.574265 
L 278.040726 -123.124845 
L 276.236712 -122.762306 
L 274.432699 -122.037002 
L 272.628685 -121.311392 
L 270.824671 -120.948472 
L 269.020658 -120.585472 
L 267.216644 -120.222394 
L 265.41263 -118.769278 
L 263.608616 -118.405794 
L 261.804603 -118.042227 
L 260.000589 -116.223115 
L 258.196575 -116.223115 
L 256.392562 -114.037263 
L 254.588548 -112.943089 
L 252.784534 -112.578173 
L 250.980521 -110.386603 
L 249.176507 -109.289437 
L 247.372493 -108.191311 
L 245.568479 -107.82505 
L 243.764466 -107.82505 
L 241.960452 -107.458677 
L 240.156438 -106.725592 
L 238.352425 -106.358877 
L 236.548411 -104.890838 
L 234.744397 -104.15609 
L 232.940384 -104.15609 
L 231.13637 -103.78853 
L 229.332356 -102.685081 
L 227.528342 -102.685081 
L 225.724329 -102.685081 
L 223.920315 -100.843348 
L 222.116301 -99.73664 
L 220.312288 -98.99811 
L 218.508274 -98.25898 
L 216.70426 -97.149125 
L 214.900247 -96.037825 
L 213.096233 -95.296124 
L 211.292219 -94.553731 
L 209.488205 -93.810626 
L 207.684192 -93.810626 
L 205.880178 -93.066786 
L 204.076164 -90.830614 
L 202.272151 -90.083584 
L 200.468137 -88.961404 
L 198.664123 -88.212147 
L 196.86011 -87.461941 
L 195.056096 -87.461941 
L 193.252082 -87.08647 
L 191.448068 -87.08647 
L 189.644055 -87.08647 
L 187.840041 -87.08647 
L 186.036027 -86.710748 
L 184.232014 -86.33477 
L 182.428 -86.33477 
L 180.623986 -85.958531 
L 178.819973 -85.582025 
L 177.015959 -85.205248 
L 175.211945 -84.450853 
L 173.407932 -84.073224 
L 171.603918 -83.6953 
L 169.799904 -83.317073 
L 167.99589 -82.938537 
L 166.191877 -82.938537 
L 164.387863 -82.180509 
L 162.583849 -80.279501 
L 160.779836 -78.75201 
L 158.975822 -77.985815 
L 157.171808 -77.985815 
L 155.367795 -77.217864 
L 153.563781 -75.676268 
L 151.759767 -75.676268 
L 149.955753 -74.90238 
L 148.15174 -74.514605 
L 146.347726 -74.126249 
L 144.543712 -74.126249 
L 142.739699 -73.347718 
L 140.935685 -72.957497 
L 139.131671 -72.566607 
L 137.327658 -71.782719 
L 135.523644 -71.389663 
L 133.71963 -70.995824 
L 131.915616 -69.809267 
L 130.111603 -69.809267 
L 128.307589 -69.411938 
L 126.503575 -69.013631 
L 124.699562 -68.213886 
L 122.895548 -68.213886 
L 121.091534 -67.812337 
L 119.287521 -67.409588 
L 117.483507 -67.00557 
L 115.679493 -66.600208 
L 113.875479 -65.78511 
L 112.071466 -65.37518 
L 110.267452 -65.37518 
L 108.463438 -65.37518 
L 106.659425 -64.134456 
L 104.855411 -63.296713 
L 103.051397 -62.874113 
L 101.247384 -62.874113 
L 99.44337 -62.448722 
L 97.639356 -62.020271 
L 95.835342 -62.020271 
L 94.031329 -61.588451 
L 92.227315 -61.588451 
L 90.423301 -61.152914 
L 88.619288 -60.713274 
L 86.815274 -60.713274 
L 85.01126 -60.713274 
L 83.207247 -60.269128 
L 81.403233 -59.820121 
L 79.599219 -59.366143 
L 77.795205 -59.366143 
L 75.991192 -59.366143 
L 74.187178 -58.449442 
L 72.383164 -58.00818 
L 70.579151 -58.00818 
L 68.775137 -58.00818 
L 66.971123 -58.00818 
L 65.16711 -58.00818 
L 63.363096 -57.704508 
L 61.559082 -57.704508 
L 59.755068 -57.704508 
L 57.951055 -57.704508 
L 56.147041 -55.303466 
L 54.343027 -55.303466 
L 52.539014 -55.303466 
L 50.735 -55.303466 
z
"/>
    </defs>
    <g clip-path="url(#p7e3517e076)">
     <use xlink:href="#m440a8bf7a9" x="0" y="403.2" style="fill: #1c8c62; fill-opacity: 0.14"/>
    </g>
   </g>
   <g id="FillBetweenPolyCollection_3">
    <defs>
     <path id="m7760f0b16e" d="M 50.735 -55.303466 
L 50.735 -55.303466 
L 52.539014 -55.303466 
L 54.343027 -55.315582 
L 56.147041 -55.386691 
L 57.951055 -55.386691 
L 59.755068 -55.482478 
L 61.559082 -55.482478 
L 63.363096 -55.53533 
L 65.16711 -55.766294 
L 66.971123 -55.766294 
L 68.775137 -55.889682 
L 70.579151 -55.889682 
L 72.383164 -55.952791 
L 74.187178 -56.08135 
L 75.991192 -56.08135 
L 77.795205 -56.146653 
L 79.599219 -56.413423 
L 81.403233 -56.549585 
L 83.207247 -56.618252 
L 85.01126 -56.687277 
L 86.815274 -56.756639 
L 88.619288 -56.966563 
L 90.423301 -57.321676 
L 92.227315 -57.393377 
L 94.031329 -57.537381 
L 95.835342 -57.900543 
L 97.639356 -58.046934 
L 99.44337 -58.267591 
L 101.247384 -58.786859 
L 103.051397 -58.936225 
L 104.855411 -59.161023 
L 106.659425 -59.462046 
L 108.463438 -59.688707 
L 110.267452 -60.144106 
L 112.071466 -60.296475 
L 113.875479 -61.062098 
L 115.679493 -61.215914 
L 117.483507 -61.755893 
L 119.287521 -61.910609 
L 121.091534 -61.988036 
L 122.895548 -62.298185 
L 124.699562 -62.453515 
L 126.503575 -62.686817 
L 128.307589 -62.686817 
L 130.111603 -63.310646 
L 131.915616 -63.623422 
L 133.71963 -64.17205 
L 135.523644 -64.407644 
L 137.327658 -64.486235 
L 139.131671 -64.879621 
L 140.935685 -65.431513 
L 142.739699 -65.510459 
L 144.543712 -65.826495 
L 146.347726 -66.380481 
L 148.15174 -66.618248 
L 149.955753 -66.935577 
L 151.759767 -67.49171 
L 153.563781 -67.809941 
L 155.367795 -68.128478 
L 157.171808 -68.287858 
L 158.975822 -68.686623 
L 160.779836 -68.846252 
L 162.583849 -69.405488 
L 164.387863 -70.045585 
L 166.191877 -70.285876 
L 167.99589 -70.446145 
L 169.799904 -70.526301 
L 171.603918 -70.526301 
L 173.407932 -70.927301 
L 175.211945 -71.408964 
L 177.015959 -72.212805 
L 178.819973 -72.615203 
L 180.623986 -73.420906 
L 182.428 -73.743512 
L 184.232014 -73.904883 
L 186.036027 -74.5508 
L 187.840041 -75.682759 
L 189.644055 -76.168477 
L 191.448068 -76.897685 
L 193.252082 -77.303116 
L 195.056096 -77.46535 
L 196.86011 -77.627619 
L 198.664123 -77.952258 
L 200.468137 -78.277032 
L 202.272151 -78.845701 
L 204.076164 -79.252132 
L 205.880178 -79.496085 
L 207.684192 -79.984194 
L 209.488205 -80.30975 
L 211.292219 -80.553993 
L 213.096233 -81.205624 
L 214.900247 -81.776166 
L 216.70426 -82.183898 
L 218.508274 -82.591796 
L 220.312288 -82.999855 
L 222.116301 -83.163123 
L 223.920315 -83.489735 
L 225.724329 -83.734758 
L 227.528342 -84.38842 
L 229.332356 -84.470154 
L 231.13637 -84.633641 
L 232.940384 -85.04246 
L 234.744397 -85.451421 
L 236.548411 -85.94236 
L 238.352425 -86.106051 
L 240.156438 -86.679138 
L 241.960452 -87.252485 
L 243.764466 -87.580226 
L 245.568479 -88.153969 
L 247.372493 -88.235952 
L 249.176507 -88.645942 
L 250.980521 -89.056054 
L 252.784534 -89.712482 
L 254.588548 -90.451319 
L 256.392562 -90.77981 
L 258.196575 -91.026225 
L 260.000589 -91.519173 
L 261.804603 -92.094477 
L 263.608616 -92.341099 
L 265.41263 -92.998943 
L 267.216644 -93.65705 
L 269.020658 -93.903906 
L 270.824671 -93.903906 
L 272.628685 -94.150798 
L 274.432699 -94.644687 
L 276.236712 -95.221067 
L 278.040726 -95.880014 
L 279.84474 -96.12718 
L 281.648753 -96.456786 
L 283.452767 -96.951304 
L 285.256781 -97.3635 
L 287.060795 -97.858251 
L 288.864808 -98.105673 
L 290.668822 -98.848124 
L 292.472836 -99.343242 
L 294.276849 -100.168701 
L 296.080863 -100.994481 
L 297.884877 -101.324881 
L 299.68889 -101.65533 
L 301.492904 -102.729627 
L 303.296918 -103.72173 
L 305.100932 -103.969821 
L 306.904945 -104.46608 
L 308.708959 -105.045177 
L 310.512973 -105.376151 
L 312.316986 -105.955461 
L 314.121 -106.452117 
L 315.925014 -106.866071 
L 317.729027 -107.28009 
L 319.533041 -107.777 
L 321.337055 -108.108324 
L 323.141068 -108.274002 
L 324.945082 -108.439689 
L 326.749096 -109.599783 
L 328.55311 -110.594532 
L 330.357123 -111.506688 
L 332.161137 -111.921398 
L 333.965151 -112.668021 
L 335.769164 -113.082891 
L 337.573178 -113.414827 
L 339.377192 -113.995801 
L 341.181205 -114.493865 
L 342.985219 -115.075038 
L 344.789233 -116.154636 
L 346.593247 -116.403824 
L 348.39726 -116.985336 
L 350.201274 -117.317674 
L 352.005288 -118.065552 
L 353.809301 -118.647346 
L 355.613315 -119.229238 
L 357.417329 -119.644933 
L 359.221342 -120.310146 
L 361.025356 -121.391374 
L 362.82937 -122.223303 
L 364.633384 -122.888977 
L 366.437397 -123.554766 
L 368.241411 -124.137425 
L 370.045425 -125.136468 
L 371.849438 -125.636083 
L 373.653452 -125.636083 
L 375.457466 -126.46891 
L 377.261479 -127.218597 
L 379.065493 -128.301714 
L 380.869507 -128.468372 
L 382.673521 -128.968383 
L 384.477534 -129.468452 
L 386.281548 -130.051938 
L 388.085562 -130.718872 
L 389.889575 -131.80285 
L 391.693589 -133.137328 
L 393.497603 -133.637854 
L 395.301616 -133.888137 
L 397.10563 -134.221869 
L 398.909644 -134.722509 
L 400.713658 -135.557024 
L 402.517671 -136.308208 
L 404.321685 -137.309962 
L 406.125699 -137.977908 
L 407.929712 -138.478924 
L 409.733726 -139.063505 
L 411.53774 -139.64815 
L 413.341753 -140.48347 
L 415.145767 -141.151819 
L 416.949781 -141.820251 
L 418.753795 -142.488764 
L 420.557808 -143.073779 
L 422.361822 -143.324518 
L 424.165836 -143.90962 
L 425.969849 -144.745585 
L 427.773863 -145.83252 
L 429.577877 -146.752391 
L 431.38189 -147.588762 
L 433.185904 -148.09064 
L 434.989918 -148.759875 
L 436.793932 -149.178185 
L 438.597945 -150.098564 
L 440.401959 -150.433282 
L 442.205973 -151.353846 
L 444.009986 -151.772328 
L 445.814 -152.190837 
L 447.618014 -152.693084 
L 449.422027 -152.860509 
L 451.226041 -153.19537 
L 453.030055 -153.697695 
L 454.834068 -154.869933 
L 456.638082 -155.707372 
L 458.442096 -156.042376 
L 460.24611 -157.298789 
L 462.050123 -157.382558 
L 463.854137 -157.801418 
L 465.658151 -158.722997 
L 467.462164 -159.644697 
L 469.266178 -160.147492 
L 471.070192 -160.985561 
L 472.874205 -161.237001 
L 474.678219 -161.823727 
L 476.482233 -162.494328 
L 478.286247 -162.997318 
L 480.09026 -163.332664 
L 481.894274 -163.83571 
L 483.698288 -164.171093 
L 485.502301 -164.506491 
L 487.306315 -165.17733 
L 489.110329 -166.099828 
L 490.914342 -166.267567 
L 492.718356 -166.770805 
L 494.52237 -167.022436 
L 496.326384 -167.357956 
L 498.130397 -167.777377 
L 499.934411 -168.196819 
L 501.738425 -168.867973 
L 503.542438 -169.706992 
L 505.346452 -170.71393 
L 507.150466 -171.049603 
L 508.954479 -171.804917 
L 510.758493 -172.308497 
L 512.562507 -172.39243 
L 514.366521 -173.063924 
L 516.170534 -173.819417 
L 517.974548 -174.071263 
L 519.778562 -174.742889 
L 521.582575 -175.83439 
L 523.386589 -176.254234 
L 525.190603 -176.84205 
L 526.994616 -177.345922 
L 528.79863 -177.597869 
L 530.602644 -178.85771 
L 532.406658 -179.949712 
L 534.210671 -180.285739 
L 536.014685 -180.705789 
L 537.818699 -181.041843 
L 539.622712 -181.545947 
L 541.426726 -182.134102 
L 543.23074 -183.142453 
L 545.034753 -183.982827 
L 546.838767 -184.234953 
L 548.642781 -184.823273 
L 550.446795 -185.747848 
L 552.250808 -186.588446 
L 554.054822 -187.345045 
L 555.858836 -188.353932 
L 557.662849 -189.36292 
L 559.466863 -190.035634 
L 561.270877 -190.960687 
L 563.07489 -191.71761 
L 564.878904 -192.222255 
L 566.682918 -193.315737 
L 568.486932 -194.661714 
L 570.290945 -195.334765 
L 572.094959 -196.260279 
L 573.898973 -196.680993 
L 575.702986 -197.774924 
L 577.507 -198.616482 
L 579.311014 -199.458103 
L 581.115027 -200.383959 
L 582.919041 -200.804827 
L 584.723055 -201.394068 
L 586.527068 -202.067524 
L 588.331082 -202.825208 
L 590.135096 -203.330358 
L 591.93911 -203.83553 
L 593.743123 -204.509126 
L 595.547137 -205.266966 
L 597.351151 -205.6038 
L 599.155164 -206.277495 
L 600.959178 -206.867009 
L 602.763192 -207.203888 
L 604.567205 -207.456552 
L 606.371219 -208.13035 
L 608.175233 -209.64653 
L 609.979247 -210.404689 
L 611.78326 -210.741664 
L 613.587274 -211.162894 
L 615.391288 -211.584139 
L 617.195301 -212.342415 
L 618.999315 -212.763698 
L 620.803329 -213.690571 
L 622.607342 -214.786051 
L 624.411356 -215.628791 
L 626.21537 -216.724434 
L 628.019384 -217.820167 
L 629.823397 -218.831692 
L 631.627411 -219.506084 
L 633.431425 -220.264815 
L 635.235438 -221.023589 
L 637.039452 -221.782404 
L 638.843466 -223.13151 
L 640.647479 -223.721786 
L 642.451493 -224.312086 
L 644.255507 -225.408422 
L 646.059521 -226.251815 
L 647.863534 -227.179604 
L 649.667548 -228.529222 
L 651.471562 -229.457157 
L 653.275575 -230.047691 
L 655.079589 -230.891352 
L 656.883603 -231.819434 
L 658.687616 -232.578816 
L 660.49163 -233.591386 
L 662.295644 -234.857192 
L 664.099658 -235.616725 
L 665.903671 -236.713895 
L 667.707685 -238.31759 
L 669.511699 -239.837029 
L 671.315712 -240.765647 
L 673.119726 -241.441039 
L 674.92374 -242.369749 
L 676.727753 -243.805132 
L 678.531767 -244.733976 
L 680.335781 -246.59182 
L 682.139795 -248.112027 
L 683.943808 -249.294504 
L 685.747822 -250.646007 
L 687.551836 -252.166573 
L 689.355849 -253.687272 
L 691.159863 -254.447671 
L 692.963877 -255.799571 
L 694.76789 -257.827612 
L 696.571904 -259.348792 
L 698.375918 -260.362982 
L 700.179932 -261.799846 
L 701.983945 -262.81417 
L 703.787959 -264.92752 
L 705.591973 -267.125652 
L 707.395986 -269.66227 
L 709.2 -272.114645 
L 709.2 -288.62684 
L 709.2 -288.62684 
L 707.395986 -286.09095 
L 705.591973 -283.467294 
L 703.787959 -281.193189 
L 701.983945 -279.006311 
L 700.179932 -277.956525 
L 698.375918 -276.469234 
L 696.571904 -275.419314 
L 694.76789 -273.844329 
L 692.963877 -271.744151 
L 691.159863 -270.343905 
L 689.355849 -269.556221 
L 687.551836 -267.980756 
L 685.747822 -266.405158 
L 683.943808 -265.004514 
L 682.139795 -263.778863 
L 680.335781 -262.202906 
L 678.531767 -260.276548 
L 676.727753 -259.313292 
L 674.92374 -257.824519 
L 673.119726 -256.861128 
L 671.315712 -256.160447 
L 669.511699 -255.196964 
L 667.707685 -253.620239 
L 665.903671 -251.95576 
L 664.099658 -250.816811 
L 662.295644 -250.028262 
L 660.49163 -248.713931 
L 658.687616 -247.66239 
L 656.883603 -246.873691 
L 655.079589 -245.909672 
L 653.275575 -245.033241 
L 651.471562 -244.419711 
L 649.667548 -243.455545 
L 647.863534 -242.053017 
L 646.059521 -241.088705 
L 644.255507 -240.212007 
L 642.451493 -239.072224 
L 640.647479 -238.45846 
L 638.843466 -237.844671 
L 637.039452 -236.441631 
L 635.235438 -235.652364 
L 633.431425 -234.863055 
L 631.627411 -234.073704 
L 629.823397 -233.372023 
L 628.019384 -232.319438 
L 626.21537 -231.179052 
L 624.411356 -230.038575 
L 622.607342 -229.161223 
L 620.803329 -228.020585 
L 618.999315 -227.055357 
L 617.195301 -226.616595 
L 615.391288 -225.826788 
L 613.587274 -225.387986 
L 611.78326 -224.949171 
L 609.979247 -224.598109 
L 608.175233 -223.808186 
L 606.371219 -222.228201 
L 604.567205 -221.525925 
L 602.763192 -221.262563 
L 600.959178 -220.911404 
L 599.155164 -220.296854 
L 597.351151 -219.594476 
L 595.547137 -219.243273 
L 593.743123 -218.453031 
L 591.93911 -217.750554 
L 590.135096 -217.223671 
L 588.331082 -216.696766 
L 586.527068 -215.906367 
L 584.723055 -215.203749 
L 582.919041 -214.588927 
L 581.115027 -214.149749 
L 579.311014 -213.183504 
L 577.507 -212.305034 
L 575.702986 -211.4265 
L 573.898973 -210.284312 
L 572.094959 -209.84498 
L 570.290945 -208.878393 
L 568.486932 -208.175371 
L 566.682918 -206.769201 
L 564.878904 -205.626563 
L 563.07489 -205.099154 
L 561.270877 -204.307994 
L 559.466863 -203.340946 
L 557.662849 -202.637587 
L 555.858836 -201.582465 
L 554.054822 -200.527242 
L 552.250808 -199.735759 
L 550.446795 -198.856265 
L 548.642781 -197.888739 
L 546.838767 -197.272995 
L 545.034753 -197.009094 
L 543.23074 -196.129376 
L 541.426726 -195.073616 
L 539.622712 -194.457707 
L 537.818699 -193.929756 
L 536.014685 -193.577774 
L 534.210671 -193.137778 
L 532.406658 -192.785768 
L 530.602644 -191.641652 
L 528.79863 -190.321354 
L 526.994616 -190.057274 
L 525.190603 -189.529091 
L 523.386589 -188.912843 
L 521.582575 -188.472641 
L 519.778562 -187.328023 
L 517.974548 -186.623575 
L 516.170534 -186.359394 
L 514.366521 -185.566805 
L 512.562507 -184.862225 
L 510.758493 -184.774149 
L 508.954479 -184.245674 
L 507.150466 -183.452906 
L 505.346452 -183.100542 
L 503.542438 -182.04337 
L 501.738425 -181.162298 
L 499.934411 -180.457378 
L 498.130397 -180.016774 
L 496.326384 -179.576149 
L 494.52237 -179.223633 
L 492.718356 -178.959236 
L 490.914342 -178.430419 
L 489.110329 -178.254139 
L 487.306315 -177.284537 
L 485.502301 -176.579303 
L 483.698288 -176.226664 
L 481.894274 -175.87401 
L 480.09026 -175.345001 
L 478.286247 -174.99231 
L 476.482233 -174.463246 
L 474.678219 -173.757773 
L 472.874205 -173.140435 
L 471.070192 -172.875847 
L 469.266178 -171.993825 
L 467.462164 -171.464565 
L 465.658151 -170.494164 
L 463.854137 -169.523643 
L 462.050123 -169.082457 
L 460.24611 -168.994217 
L 458.442096 -167.670492 
L 456.638082 -167.31746 
L 454.834068 -166.434807 
L 453.030055 -165.198917 
L 451.226041 -164.669186 
L 449.422027 -164.316011 
L 447.618014 -164.139417 
L 445.814 -163.60961 
L 444.009986 -163.168073 
L 442.205973 -162.72651 
L 440.401959 -161.754973 
L 438.597945 -161.401653 
L 436.793932 -160.429933 
L 434.989918 -159.988196 
L 433.185904 -159.281358 
L 431.38189 -158.751181 
L 429.577877 -157.86746 
L 427.773863 -156.895231 
L 425.969849 -155.746047 
L 424.165836 -154.86192 
L 422.361822 -154.242958 
L 420.557808 -153.97767 
L 418.753795 -153.358621 
L 416.949781 -152.651061 
L 415.145767 -151.943419 
L 413.341753 -151.235695 
L 411.53774 -150.350924 
L 409.733726 -149.731505 
L 407.929712 -149.112022 
L 406.125699 -148.580983 
L 404.321685 -147.872856 
L 402.517671 -146.810501 
L 400.713658 -146.013602 
L 398.909644 -145.128026 
L 397.10563 -144.596611 
L 395.301616 -144.242306 
L 393.497603 -143.976562 
L 391.693589 -143.445034 
L 389.889575 -142.027365 
L 388.085562 -140.875224 
L 386.281548 -140.166085 
L 384.477534 -139.545507 
L 382.673521 -139.013522 
L 380.869507 -138.481478 
L 379.065493 -138.304118 
L 377.261479 -137.151116 
L 375.457466 -136.352721 
L 373.653452 -135.465457 
L 371.849438 -135.465457 
L 370.045425 -134.933017 
L 368.241411 -133.867951 
L 366.437397 -133.246546 
L 364.633384 -132.536262 
L 362.82937 -131.825864 
L 361.025356 -130.937701 
L 359.221342 -129.782812 
L 357.417329 -129.071951 
L 355.613315 -128.627601 
L 353.809301 -128.005429 
L 352.005288 -127.38316 
L 350.201274 -126.582957 
L 348.39726 -126.227258 
L 346.593247 -125.604706 
L 344.789233 -125.337867 
L 342.985219 -124.181347 
L 341.181205 -123.558457 
L 339.377192 -123.024466 
L 337.573178 -122.401377 
L 335.769164 -122.045277 
L 333.965151 -121.600102 
L 332.161137 -120.798643 
L 330.357123 -120.353308 
L 328.55311 -119.373364 
L 326.749096 -118.304004 
L 324.945082 -117.055972 
L 323.141068 -116.877641 
L 321.337055 -116.699301 
L 319.533041 -116.342589 
L 317.729027 -115.807445 
L 315.925014 -115.361419 
L 314.121 -114.915328 
L 312.316986 -114.37993 
L 310.512973 -113.755177 
L 308.708959 -113.398115 
L 306.904945 -112.773149 
L 305.100932 -112.237354 
L 303.296918 -111.969418 
L 301.492904 -110.897414 
L 299.68889 -109.735593 
L 297.884877 -109.378007 
L 296.080863 -109.020371 
L 294.276849 -108.126061 
L 292.472836 -107.231431 
L 290.668822 -106.694496 
L 288.864808 -105.888867 
L 287.060795 -105.620262 
L 285.256781 -105.08296 
L 283.452767 -104.635111 
L 281.648753 -104.097576 
L 279.84474 -103.739146 
L 278.040726 -103.470286 
L 276.236712 -102.753161 
L 274.432699 -102.125479 
L 272.628685 -101.587316 
L 270.824671 -101.318181 
L 269.020658 -101.318181 
L 267.216644 -101.049011 
L 265.41263 -100.331047 
L 263.608616 -99.61282 
L 261.804603 -99.343417 
L 260.000589 -98.714659 
L 258.196575 -98.175555 
L 256.392562 -97.905943 
L 254.588548 -97.546398 
L 252.784534 -96.737157 
L 250.980521 -96.017515 
L 249.176507 -95.567584 
L 247.372493 -95.117531 
L 245.568479 -95.027505 
L 243.764466 -94.397187 
L 241.960452 -94.036894 
L 240.156438 -93.40618 
L 238.352425 -92.775207 
L 236.548411 -92.59488 
L 234.744397 -92.053768 
L 232.940384 -91.602687 
L 231.13637 -91.151462 
L 229.332356 -90.970932 
L 227.528342 -90.880658 
L 225.724329 -90.158252 
L 223.920315 -89.88725 
L 222.116301 -89.525827 
L 220.312288 -89.345078 
L 218.508274 -88.893095 
L 216.70426 -88.440951 
L 214.900247 -87.988642 
L 213.096233 -87.355125 
L 211.292219 -86.630689 
L 209.488205 -86.358908 
L 207.684192 -85.99643 
L 205.880178 -85.452491 
L 204.076164 -85.180418 
L 202.272151 -84.726808 
L 200.468137 -84.091421 
L 198.664123 -83.728162 
L 196.86011 -83.364769 
L 195.056096 -83.183022 
L 193.252082 -83.00124 
L 191.448068 -82.546631 
L 189.644055 -81.727768 
L 187.840041 -81.181439 
L 186.036027 -79.90529 
L 184.232014 -79.175147 
L 182.428 -78.992502 
L 180.623986 -78.627078 
L 178.819973 -77.712707 
L 177.015959 -77.25507 
L 175.211945 -76.33884 
L 173.407932 -75.788461 
L 171.603918 -75.329427 
L 169.799904 -75.329427 
L 167.99589 -75.237577 
L 166.191877 -75.053832 
L 164.387863 -74.778104 
L 162.583849 -74.042149 
L 160.779836 -73.397341 
L 158.975822 -73.212958 
L 157.171808 -72.751694 
L 155.367795 -72.567063 
L 153.563781 -72.197577 
L 151.759767 -71.827785 
L 149.955753 -71.179882 
L 148.15174 -70.809191 
L 146.347726 -70.530944 
L 144.543712 -69.8809 
L 142.739699 -69.508919 
L 140.935685 -69.415861 
L 139.131671 -68.763729 
L 137.327658 -68.2971 
L 135.523644 -68.203688 
L 133.71963 -67.923275 
L 131.915616 -67.26789 
L 130.111603 -66.892661 
L 128.307589 -66.140488 
L 126.503575 -66.140488 
L 124.699562 -65.857793 
L 122.895548 -65.669126 
L 121.091534 -65.291283 
L 119.287521 -65.196712 
L 117.483507 -65.007433 
L 115.679493 -64.343443 
L 113.875479 -64.15327 
L 112.071466 -63.198975 
L 110.267452 -63.007366 
L 108.463438 -62.430848 
L 106.659425 -62.14156 
L 104.855411 -61.754664 
L 103.051397 -61.463534 
L 101.247384 -61.268954 
L 99.44337 -60.584463 
L 97.639356 -60.289253 
L 95.835342 -60.091746 
L 94.031329 -59.595223 
L 92.227315 -59.395382 
L 90.423301 -59.295168 
L 88.619288 -58.790812 
L 86.815274 -58.485166 
L 85.01126 -58.382697 
L 83.207247 -58.279906 
L 81.403233 -58.176775 
L 79.599219 -57.969405 
L 77.795205 -57.549479 
L 75.991192 -57.443221 
L 74.187178 -57.443221 
L 72.383164 -57.228866 
L 70.579151 -57.120657 
L 68.775137 -57.120657 
L 66.971123 -56.901831 
L 65.16711 -56.901831 
L 63.363096 -56.452053 
L 61.559082 -56.336589 
L 59.755068 -56.336589 
L 57.951055 -56.103449 
L 56.147041 -56.103449 
L 54.343027 -55.914016 
L 52.539014 -55.303466 
L 50.735 -55.303466 
z
"/>
    </defs>
    <g clip-path="url(#p7e3517e076)">
     <use xlink:href="#m7760f0b16e" x="0" y="403.2" style="fill: #d95f02; fill-opacity: 0.14"/>
    </g>
   </g>
   <g id="matplotlib.axis_1">
    <g id="xtick_1">
     <g id="line2d_1">
      <defs>
       <path id="mbcde514f3c" d="M 0 0 
L 0 3.5 
" style="stroke: #000000; stroke-width: 0.8"/>
      </defs>
      <g>
       <use xlink:href="#mbcde514f3c" x="50.735" y="363.09625" style="stroke: #000000; stroke-width: 0.8"/>
      </g>
     </g>
     <g id="text_1">
      <text style="font-size: 10px; font-family: 'Arial Unicode MS'; text-anchor: middle" x="50.735" y="377.254062" transform="rotate(-0 50.735 377.254062)">0</text>
     </g>
    </g>
    <g id="xtick_2">
     <g id="line2d_2">
      <g>
       <use xlink:href="#mbcde514f3c" x="140.935685" y="363.09625" style="stroke: #000000; stroke-width: 0.8"/>
      </g>
     </g>
     <g id="text_2">
      <text style="font-size: 10px; font-family: 'Arial Unicode MS'; text-anchor: middle" x="140.935685" y="377.254062" transform="rotate(-0 140.935685 377.254062)">50</text>
     </g>
    </g>
    <g id="xtick_3">
     <g id="line2d_3">
      <g>
       <use xlink:href="#mbcde514f3c" x="231.13637" y="363.09625" style="stroke: #000000; stroke-width: 0.8"/>
      </g>
     </g>
     <g id="text_3">
      <text style="font-size: 10px; font-family: 'Arial Unicode MS'; text-anchor: middle" x="231.13637" y="377.254062" transform="rotate(-0 231.13637 377.254062)">100</text>
     </g>
    </g>
    <g id="xtick_4">
     <g id="line2d_4">
      <g>
       <use xlink:href="#mbcde514f3c" x="321.337055" y="363.09625" style="stroke: #000000; stroke-width: 0.8"/>
      </g>
     </g>
     <g id="text_4">
      <text style="font-size: 10px; font-family: 'Arial Unicode MS'; text-anchor: middle" x="321.337055" y="377.254062" transform="rotate(-0 321.337055 377.254062)">150</text>
     </g>
    </g>
    <g id="xtick_5">
     <g id="line2d_5">
      <g>
       <use xlink:href="#mbcde514f3c" x="411.53774" y="363.09625" style="stroke: #000000; stroke-width: 0.8"/>
      </g>
     </g>
     <g id="text_5">
      <text style="font-size: 10px; font-family: 'Arial Unicode MS'; text-anchor: middle" x="411.53774" y="377.254062" transform="rotate(-0 411.53774 377.254062)">200</text>
     </g>
    </g>
    <g id="xtick_6">
     <g id="line2d_6">
      <g>
       <use xlink:href="#mbcde514f3c" x="501.738425" y="363.09625" style="stroke: #000000; stroke-width: 0.8"/>
      </g>
     </g>
     <g id="text_6">
      <text style="font-size: 10px; font-family: 'Arial Unicode MS'; text-anchor: middle" x="501.738425" y="377.254062" transform="rotate(-0 501.738425 377.254062)">250</text>
     </g>
    </g>
    <g id="xtick_7">
     <g id="line2d_7">
      <g>
       <use xlink:href="#mbcde514f3c" x="591.93911" y="363.09625" style="stroke: #000000; stroke-width: 0.8"/>
      </g>
     </g>
     <g id="text_7">
      <text style="font-size: 10px; font-family: 'Arial Unicode MS'; text-anchor: middle" x="591.93911" y="377.254062" transform="rotate(-0 591.93911 377.254062)">300</text>
     </g>
    </g>
    <g id="xtick_8">
     <g id="line2d_8">
      <g>
       <use xlink:href="#mbcde514f3c" x="682.139795" y="363.09625" style="stroke: #000000; stroke-width: 0.8"/>
      </g>
     </g>
     <g id="text_8">
      <text style="font-size: 10px; font-family: 'Arial Unicode MS'; text-anchor: middle" x="682.139795" y="377.254062" transform="rotate(-0 682.139795 377.254062)">350</text>
     </g>
    </g>
    <g id="text_9">
     <text style="font-size: 10px; font-family: 'Arial Unicode MS'; text-anchor: middle" x="379.9675" y="390.404063" transform="rotate(-0 379.9675 390.404063)">距 2023-2024 最後一次投保天數</text>
    </g>
   </g>
   <g id="matplotlib.axis_2">
    <g id="ytick_1">
     <g id="line2d_9">
      <path d="M 50.735 347.896534 
L 709.2 347.896534 
" clip-path="url(#p7e3517e076)" style="fill: none; stroke: #d9e1ef; stroke-width: 0.8; stroke-linecap: square"/>
     </g>
     <g id="line2d_10">
      <defs>
       <path id="m8787707e64" d="M 0 0 
L -3.5 0 
" style="stroke: #000000; stroke-width: 0.8"/>
      </defs>
      <g>
       <use xlink:href="#m8787707e64" x="50.735" y="347.896534" style="stroke: #000000; stroke-width: 0.8"/>
      </g>
     </g>
     <g id="text_10">
      <text style="font-size: 10px; font-family: 'Arial Unicode MS'; text-anchor: end" x="43.735" y="351.47544" transform="rotate(-0 43.735 351.47544)">0.00</text>
     </g>
    </g>
    <g id="ytick_2">
     <g id="line2d_11">
      <path d="M 50.735 293.794653 
L 709.2 293.794653 
" clip-path="url(#p7e3517e076)" style="fill: none; stroke: #d9e1ef; stroke-width: 0.8; stroke-linecap: square"/>
     </g>
     <g id="line2d_12">
      <g>
       <use xlink:href="#m8787707e64" x="50.735" y="293.794653" style="stroke: #000000; stroke-width: 0.8"/>
      </g>
     </g>
     <g id="text_11">
      <text style="font-size: 10px; font-family: 'Arial Unicode MS'; text-anchor: end" x="43.735" y="297.373559" transform="rotate(-0 43.735 297.373559)">0.02</text>
     </g>
    </g>
    <g id="ytick_3">
     <g id="line2d_13">
      <path d="M 50.735 239.692771 
L 709.2 239.692771 
" clip-path="url(#p7e3517e076)" style="fill: none; stroke: #d9e1ef; stroke-width: 0.8; stroke-linecap: square"/>
     </g>
     <g id="line2d_14">
      <g>
       <use xlink:href="#m8787707e64" x="50.735" y="239.692771" style="stroke: #000000; stroke-width: 0.8"/>
      </g>
     </g>
     <g id="text_12">
      <text style="font-size: 10px; font-family: 'Arial Unicode MS'; text-anchor: end" x="43.735" y="243.271678" transform="rotate(-0 43.735 243.271678)">0.04</text>
     </g>
    </g>
    <g id="ytick_4">
     <g id="line2d_15">
      <path d="M 50.735 185.59089 
L 709.2 185.59089 
" clip-path="url(#p7e3517e076)" style="fill: none; stroke: #d9e1ef; stroke-width: 0.8; stroke-linecap: square"/>
     </g>
     <g id="line2d_16">
      <g>
       <use xlink:href="#m8787707e64" x="50.735" y="185.59089" style="stroke: #000000; stroke-width: 0.8"/>
      </g>
     </g>
     <g id="text_13">
      <text style="font-size: 10px; font-family: 'Arial Unicode MS'; text-anchor: end" x="43.735" y="189.169796" transform="rotate(-0 43.735 189.169796)">0.06</text>
     </g>
    </g>
    <g id="ytick_5">
     <g id="line2d_17">
      <path d="M 50.735 131.489009 
L 709.2 131.489009 
" clip-path="url(#p7e3517e076)" style="fill: none; stroke: #d9e1ef; stroke-width: 0.8; stroke-linecap: square"/>
     </g>
     <g id="line2d_18">
      <g>
       <use xlink:href="#m8787707e64" x="50.735" y="131.489009" style="stroke: #000000; stroke-width: 0.8"/>
      </g>
     </g>
     <g id="text_14">
      <text style="font-size: 10px; font-family: 'Arial Unicode MS'; text-anchor: end" x="43.735" y="135.067915" transform="rotate(-0 43.735 135.067915)">0.08</text>
     </g>
    </g>
    <g id="ytick_6">
     <g id="line2d_19">
      <path d="M 50.735 77.387128 
L 709.2 77.387128 
" clip-path="url(#p7e3517e076)" style="fill: none; stroke: #d9e1ef; stroke-width: 0.8; stroke-linecap: square"/>
     </g>
     <g id="line2d_20">
      <g>
       <use xlink:href="#m8787707e64" x="50.735" y="77.387128" style="stroke: #000000; stroke-width: 0.8"/>
      </g>
     </g>
     <g id="text_15">
      <text style="font-size: 10px; font-family: 'Arial Unicode MS'; text-anchor: end" x="43.735" y="80.966034" transform="rotate(-0 43.735 80.966034)">0.10</text>
     </g>
    </g>
    <g id="text_16">
     <text style="font-size: 10px; font-family: 'Arial Unicode MS'; text-anchor: middle" x="18.281875" y="195.899375" transform="rotate(-90 18.281875 195.899375)">累積回購率</text>
    </g>
   </g>
   <g id="line2d_21">
    <path d="M 50.735 347.896534 
L 61.559082 347.835592 
L 65.16711 347.67308 
L 70.579151 347.551196 
L 74.187178 347.388684 
L 77.795205 346.982404 
L 81.403233 346.596438 
L 88.619288 345.682308 
L 90.423301 345.418226 
L 95.835342 345.011945 
L 97.639356 344.788491 
L 99.44337 344.443153 
L 103.051397 343.488395 
L 106.659425 342.696149 
L 108.463438 342.188299 
L 112.071466 341.477309 
L 113.875479 340.928831 
L 122.895548 339.242768 
L 131.915616 337.211368 
L 135.523644 336.480064 
L 137.327658 336.25661 
L 142.739699 335.139339 
L 148.15174 333.636103 
L 149.955753 333.107939 
L 151.759767 332.417263 
L 160.779836 329.735814 
L 175.211945 325.957409 
L 177.015959 325.307361 
L 187.840041 322.321203 
L 191.448068 321.04142 
L 200.468137 317.913064 
L 202.272151 317.242702 
L 204.076164 316.97862 
L 209.488205 315.150359 
L 211.292219 314.662823 
L 216.70426 312.550167 
L 218.508274 312.022003 
L 225.724329 308.995216 
L 227.528342 308.040458 
L 229.332356 307.370096 
L 231.13637 307.004443 
L 232.940384 306.476279 
L 234.744397 306.090313 
L 236.548411 305.541835 
L 238.352425 304.566763 
L 245.568479 302.190024 
L 247.372493 301.45872 
L 249.176507 301.032126 
L 261.804603 295.181693 
L 267.216644 293.129979 
L 269.020658 292.337732 
L 270.824671 291.687684 
L 279.84474 287.462371 
L 281.648753 287.015463 
L 285.256781 285.329401 
L 288.864808 283.541769 
L 290.668822 282.38387 
L 294.276849 280.575924 
L 297.884877 279.2352 
L 299.68889 278.422639 
L 301.492904 277.345997 
L 305.100932 275.720877 
L 312.316986 273.140998 
L 314.121 272.28781 
L 315.925014 271.231482 
L 321.337055 268.996941 
L 323.141068 268.346893 
L 324.945082 267.514019 
L 326.749096 266.234237 
L 328.55311 265.259165 
L 332.161137 263.593416 
L 333.965151 262.577716 
L 341.181205 259.205591 
L 344.789233 256.950737 
L 346.593247 256.138177 
L 348.39726 255.569385 
L 350.201274 254.756824 
L 352.005288 253.72081 
L 357.417329 251.344072 
L 361.025356 249.414241 
L 364.633384 247.707865 
L 366.437397 246.570281 
L 368.241411 245.656151 
L 371.849438 244.071658 
L 373.653452 243.21847 
L 375.457466 242.141828 
L 377.261479 241.28864 
L 379.065493 240.272939 
L 380.869507 239.480693 
L 382.673521 238.952529 
L 391.693589 234.808472 
L 395.301616 233.081782 
L 398.909644 231.537918 
L 404.321685 228.998667 
L 406.125699 227.779827 
L 407.929712 227.251663 
L 409.733726 226.317219 
L 411.53774 225.606228 
L 420.557808 220.994949 
L 429.577877 216.952463 
L 431.38189 216.058646 
L 438.597945 213.295942 
L 440.401959 212.463068 
L 444.009986 211.264541 
L 449.422027 209.090943 
L 453.030055 207.486137 
L 454.834068 206.836088 
L 456.638082 206.043842 
L 460.24611 204.784374 
L 462.050123 204.012442 
L 463.854137 203.44365 
L 465.658151 202.468577 
L 469.266178 200.843457 
L 474.678219 198.791743 
L 476.482233 198.019811 
L 478.286247 197.369762 
L 480.09026 196.49626 
L 489.110329 193.124136 
L 494.52237 190.848967 
L 498.130397 189.609813 
L 499.934411 188.878509 
L 501.738425 188.269089 
L 507.150466 185.953292 
L 508.954479 185.425128 
L 516.170534 182.540539 
L 517.974548 181.463897 
L 525.190603 178.924647 
L 530.602644 176.649478 
L 532.406658 175.572836 
L 534.210671 174.963416 
L 541.426726 171.550663 
L 543.23074 170.534963 
L 545.034753 169.823973 
L 546.838767 168.930156 
L 550.446795 167.650374 
L 552.250808 167.040954 
L 555.858836 165.456462 
L 557.662849 164.68453 
L 566.682918 161.698371 
L 568.486932 160.967067 
L 572.094959 159.36226 
L 575.702986 158.001222 
L 581.115027 155.136948 
L 584.723055 153.735281 
L 588.331082 152.069533 
L 590.135096 151.541369 
L 593.743123 149.855306 
L 599.155164 147.376998 
L 600.959178 146.82852 
L 604.567205 145.365911 
L 606.371219 144.390839 
L 611.78326 142.156299 
L 617.195301 140.307724 
L 622.607342 137.687218 
L 624.411356 137.03717 
L 626.21537 135.960528 
L 631.627411 133.421277 
L 635.235438 132.019611 
L 637.039452 131.00391 
L 638.843466 130.475746 
L 640.647479 129.744442 
L 644.255507 127.875554 
L 646.059521 127.083308 
L 649.667548 125.803525 
L 651.471562 124.604999 
L 653.275575 123.731497 
L 656.883603 122.350145 
L 658.687616 121.598526 
L 660.49163 120.725024 
L 662.295644 119.99372 
L 664.099658 118.97802 
L 665.903671 118.185774 
L 669.511699 115.991861 
L 673.119726 114.305799 
L 674.92374 113.574495 
L 676.727753 112.700993 
L 678.531767 111.461838 
L 680.335781 110.527394 
L 689.355849 104.961357 
L 692.963877 102.218966 
L 694.76789 100.51259 
L 701.983945 95.677857 
L 703.787959 94.296505 
L 709.2 89.014864 
L 709.2 89.014864 
" clip-path="url(#p7e3517e076)" style="fill: none; stroke: #2f6fed; stroke-width: 2.4; stroke-linecap: square"/>
   </g>
   <g id="line2d_22">
    <path d="M 50.735 347.896534 
L 56.147041 347.896534 
L 57.951055 347.558186 
L 63.363096 347.558186 
L 65.16711 347.219838 
L 72.383164 347.219838 
L 74.187178 346.881489 
L 75.991192 346.204793 
L 79.599219 346.204793 
L 85.01126 345.189748 
L 88.619288 345.189748 
L 92.227315 344.513052 
L 94.031329 344.513052 
L 95.835342 344.174704 
L 97.639356 344.174704 
L 101.247384 343.498007 
L 103.051397 343.498007 
L 104.855411 343.159659 
L 106.659425 342.482962 
L 108.463438 341.467918 
L 112.071466 341.467918 
L 113.875479 341.12957 
L 115.679493 340.452873 
L 122.895548 339.09948 
L 124.699562 339.09948 
L 126.503575 338.422784 
L 130.111603 337.746087 
L 131.915616 337.746087 
L 133.71963 336.731043 
L 137.327658 336.054346 
L 139.131671 335.37765 
L 142.739699 334.700953 
L 144.543712 334.024257 
L 146.347726 334.024257 
L 149.955753 333.34756 
L 151.759767 332.670864 
L 153.563781 332.670864 
L 155.367795 331.317471 
L 157.171808 330.640775 
L 158.975822 330.640775 
L 160.779836 329.964078 
L 162.583849 328.610685 
L 164.387863 326.918944 
L 166.191877 326.242248 
L 167.99589 326.242248 
L 175.211945 324.888855 
L 177.015959 324.212158 
L 182.428 323.197114 
L 184.232014 323.197114 
L 187.840041 322.520417 
L 193.252082 322.520417 
L 195.056096 322.182069 
L 196.86011 322.182069 
L 200.468137 320.828676 
L 202.272151 319.813631 
L 204.076164 319.136935 
L 205.880178 317.106846 
L 207.684192 316.430149 
L 209.488205 316.430149 
L 214.900247 314.40006 
L 218.508274 312.36997 
L 222.116301 311.016577 
L 223.920315 310.001533 
L 225.724329 308.309792 
L 229.332356 308.309792 
L 231.13637 307.294747 
L 232.940384 306.956399 
L 234.744397 306.956399 
L 236.548411 306.279702 
L 238.352425 304.926309 
L 240.156438 304.587961 
L 241.960452 303.911265 
L 243.764466 303.572917 
L 245.568479 303.572917 
L 247.372493 303.234568 
L 250.980521 301.204479 
L 252.784534 299.17439 
L 254.588548 298.836041 
L 256.392562 297.820997 
L 258.196575 295.790907 
L 260.000589 295.790907 
L 261.804603 294.099166 
L 265.41263 293.42247 
L 267.216644 292.069077 
L 272.628685 291.054032 
L 276.236712 289.700639 
L 278.040726 289.362291 
L 279.84474 288.008898 
L 281.648753 287.67055 
L 283.452767 286.993853 
L 287.060795 286.993853 
L 288.864808 285.978809 
L 290.668822 283.948719 
L 292.472836 282.595327 
L 294.276849 282.595327 
L 297.884877 279.888541 
L 299.68889 278.873496 
L 301.492904 278.535148 
L 303.296918 276.843407 
L 305.100932 276.16671 
L 306.904945 274.813317 
L 308.708959 273.121576 
L 310.512973 272.783228 
L 312.316986 271.768183 
L 314.121 269.399746 
L 315.925014 266.354612 
L 317.729027 263.986174 
L 319.533041 263.647826 
L 321.337055 261.956085 
L 323.141068 260.94104 
L 324.945082 259.249299 
L 326.749096 257.21921 
L 328.55311 256.542513 
L 330.357123 254.512424 
L 332.161137 252.820683 
L 333.965151 251.805638 
L 335.769164 251.46729 
L 337.573178 251.46729 
L 339.377192 250.452245 
L 341.181205 250.113897 
L 344.789233 248.083807 
L 350.201274 246.053718 
L 352.005288 244.361977 
L 353.809301 243.008584 
L 355.613315 242.331888 
L 357.417329 241.316843 
L 359.221342 239.625102 
L 361.025356 238.610057 
L 362.82937 237.933361 
L 364.633384 237.595012 
L 366.437397 236.24162 
L 368.241411 235.903271 
L 370.045425 235.226575 
L 371.849438 234.21153 
L 373.653452 232.858137 
L 375.457466 230.828048 
L 377.261479 230.4897 
L 379.065493 229.474655 
L 380.869507 226.767869 
L 382.673521 226.429521 
L 384.477534 225.414476 
L 386.281548 224.061083 
L 388.085562 223.046039 
L 389.889575 222.707691 
L 391.693589 221.354298 
L 393.497603 220.339253 
L 397.10563 218.98586 
L 398.909644 217.632467 
L 400.713658 216.955771 
L 402.517671 215.602378 
L 404.321685 213.910637 
L 406.125699 213.572288 
L 407.929712 212.557244 
L 409.733726 212.557244 
L 411.53774 210.865503 
L 415.145767 208.835413 
L 416.949781 208.835413 
L 418.753795 208.497065 
L 420.557808 207.820369 
L 424.165836 205.113583 
L 425.969849 202.745145 
L 427.773863 202.745145 
L 429.577877 201.053404 
L 434.989918 200.038359 
L 436.793932 198.684967 
L 438.597945 198.684967 
L 440.401959 197.331574 
L 442.205973 197.331574 
L 444.009986 196.654877 
L 445.814 194.963136 
L 447.618014 194.624788 
L 449.422027 191.918002 
L 451.226041 191.241306 
L 453.030055 189.211216 
L 456.638082 188.53452 
L 462.050123 185.489386 
L 465.658151 184.812689 
L 467.462164 183.797645 
L 469.266178 183.120948 
L 471.070192 182.7826 
L 472.874205 181.429207 
L 474.678219 180.414162 
L 476.482233 180.075814 
L 478.286247 180.075814 
L 480.09026 179.399118 
L 481.894274 178.384073 
L 483.698288 177.707377 
L 487.306315 177.707377 
L 489.110329 176.692332 
L 490.914342 175.000591 
L 492.718356 175.000591 
L 494.52237 174.662242 
L 498.130397 173.30885 
L 499.934411 171.617108 
L 501.738425 171.27876 
L 503.542438 171.27876 
L 505.346452 170.940412 
L 507.150466 169.925367 
L 508.954479 169.587019 
L 512.562507 166.880233 
L 514.366521 166.203537 
L 519.778562 162.143358 
L 521.582575 161.80501 
L 525.190603 160.451617 
L 526.994616 158.759876 
L 530.602644 158.083179 
L 532.406658 157.068135 
L 534.210671 156.391438 
L 536.014685 156.05309 
L 537.818699 155.038045 
L 539.622712 154.699697 
L 543.23074 153.346304 
L 545.034753 153.346304 
L 550.446795 149.286126 
L 552.250808 148.271081 
L 554.054822 146.917688 
L 557.662849 146.240992 
L 561.270877 144.887599 
L 564.878904 141.504116 
L 568.486932 138.797331 
L 572.094959 136.767241 
L 573.898973 136.090545 
L 575.702986 134.737152 
L 577.507 133.722107 
L 582.919041 131.692018 
L 584.723055 128.646884 
L 586.527068 127.970187 
L 588.331082 127.631839 
L 590.135096 125.940098 
L 591.93911 125.60175 
L 593.743123 124.925053 
L 595.547137 124.586705 
L 597.351151 123.910009 
L 600.959178 121.203223 
L 604.567205 119.84983 
L 606.371219 118.834785 
L 608.175233 116.466348 
L 609.979247 115.789651 
L 611.78326 114.774607 
L 613.587274 114.09791 
L 618.999315 113.082865 
L 626.21537 110.37608 
L 628.019384 109.361035 
L 629.823397 108.684338 
L 631.627411 108.34599 
L 635.235438 106.315901 
L 638.843466 105.639204 
L 644.255507 103.609115 
L 646.059521 103.609115 
L 647.863534 101.579026 
L 651.471562 99.548936 
L 653.275575 99.210588 
L 655.079589 98.195543 
L 660.49163 94.135365 
L 662.295644 92.105275 
L 664.099658 90.751882 
L 665.903671 89.060141 
L 669.511699 88.383445 
L 671.315712 87.706748 
L 673.119726 86.353356 
L 674.92374 85.676659 
L 676.727753 84.323266 
L 678.531767 83.984918 
L 682.139795 81.278132 
L 683.943808 80.601436 
L 687.551836 77.89465 
L 689.355849 77.217953 
L 691.159863 75.187864 
L 692.963877 73.496123 
L 694.76789 72.481078 
L 696.571904 72.481078 
L 700.179932 69.097596 
L 705.591973 67.067507 
L 707.395986 63.345676 
L 709.2 62.66898 
L 709.2 62.66898 
" clip-path="url(#p7e3517e076)" style="fill: none; stroke: #1c8c62; stroke-width: 2.4; stroke-linecap: square"/>
   </g>
   <g id="line2d_23">
    <path d="M 50.735 347.896534 
L 54.343027 347.810522 
L 56.147041 347.638497 
L 57.951055 347.638497 
L 59.755068 347.466471 
L 63.363096 347.380459 
L 65.16711 347.036409 
L 66.971123 347.036409 
L 68.775137 346.864384 
L 72.383164 346.778371 
L 74.187178 346.606346 
L 77.795205 346.520334 
L 79.599219 346.176283 
L 83.207247 345.918246 
L 86.815274 345.746221 
L 88.619288 345.488183 
L 90.423301 345.058121 
L 94.031329 344.800083 
L 95.835342 344.37002 
L 99.44337 343.939958 
L 101.247384 343.33787 
L 104.855411 342.907807 
L 112.071466 341.617619 
L 113.875479 340.757494 
L 115.679493 340.585469 
L 117.483507 339.983381 
L 124.699562 339.209269 
L 126.503575 338.951231 
L 128.307589 338.951231 
L 130.111603 338.263131 
L 131.915616 337.919081 
L 133.71963 337.316993 
L 135.523644 337.058955 
L 137.327658 336.972943 
L 139.131671 336.54288 
L 140.935685 335.940792 
L 142.739699 335.85478 
L 144.543712 335.51073 
L 146.347726 334.908642 
L 149.955753 334.306554 
L 151.759767 333.704467 
L 155.367795 333.016366 
L 157.171808 332.844341 
L 158.975822 332.414279 
L 160.779836 332.242254 
L 164.387863 330.952066 
L 167.99589 330.522003 
L 171.603918 330.435991 
L 175.211945 329.489853 
L 177.015959 328.629727 
L 178.819973 328.199665 
L 180.623986 327.339539 
L 182.428 326.995489 
L 184.232014 326.823464 
L 186.036027 326.135364 
L 187.840041 324.931189 
L 189.644055 324.415113 
L 191.448068 323.641001 
L 193.252082 323.210938 
L 196.86011 322.866888 
L 200.468137 322.178788 
L 202.272151 321.5767 
L 204.076164 321.146637 
L 205.880178 320.8886 
L 207.684192 320.372525 
L 211.292219 319.770437 
L 214.900247 318.480249 
L 220.312288 317.190061 
L 222.116301 317.018036 
L 225.724329 316.415948 
L 227.528342 315.727848 
L 231.13637 315.46981 
L 236.548411 314.09361 
L 238.352425 313.921585 
L 241.960452 312.717409 
L 243.764466 312.373359 
L 245.568479 311.771272 
L 247.372493 311.685259 
L 250.980521 310.825134 
L 254.588548 309.362921 
L 260.000589 308.244758 
L 261.804603 307.64267 
L 263.608616 307.384633 
L 267.216644 306.008432 
L 269.020658 305.750394 
L 270.824671 305.750394 
L 272.628685 305.492357 
L 276.236712 304.374194 
L 278.040726 303.686094 
L 281.648753 303.084006 
L 287.060795 301.621793 
L 288.864808 301.363755 
L 290.668822 300.589643 
L 292.472836 300.073567 
L 296.080863 298.353317 
L 299.68889 297.665217 
L 303.296918 295.514903 
L 305.100932 295.256866 
L 315.925014 292.246427 
L 321.337055 290.956239 
L 324.945082 290.612189 
L 326.749096 289.408014 
L 330.357123 287.429726 
L 332.161137 286.999663 
L 333.965151 286.22555 
L 339.377192 284.84935 
L 342.985219 283.731187 
L 344.789233 282.613024 
L 346.593247 282.354986 
L 348.39726 281.752899 
L 350.201274 281.408848 
L 352.005288 280.634736 
L 355.613315 279.43056 
L 357.417329 279.000498 
L 359.221342 278.312397 
L 361.025356 277.194235 
L 362.82937 276.334109 
L 368.241411 274.355821 
L 370.045425 273.323671 
L 371.849438 272.807595 
L 373.653452 272.807595 
L 377.261479 271.173357 
L 379.065493 270.055195 
L 380.869507 269.883169 
L 386.281548 268.248931 
L 388.085562 267.560831 
L 389.889575 266.442668 
L 391.693589 265.066468 
L 393.497603 264.550393 
L 397.10563 263.948305 
L 398.909644 263.43223 
L 406.125699 260.077741 
L 409.733726 258.959578 
L 411.53774 258.35749 
L 413.341753 257.497365 
L 420.557808 254.830977 
L 422.361822 254.572939 
L 424.165836 253.970851 
L 425.969849 253.110726 
L 427.773863 251.992563 
L 431.38189 250.1863 
L 433.185904 249.670225 
L 434.989918 248.982125 
L 436.793932 248.552062 
L 438.597945 247.605924 
L 440.401959 247.261874 
L 442.205973 246.315736 
L 447.618014 244.939536 
L 449.422027 244.767511 
L 451.226041 244.423461 
L 453.030055 243.907385 
L 454.834068 242.70321 
L 456.638082 241.843085 
L 458.442096 241.499035 
L 460.24611 240.208847 
L 462.050123 240.122834 
L 463.854137 239.692771 
L 467.462164 237.800496 
L 469.266178 237.284421 
L 471.070192 236.424295 
L 472.874205 236.166258 
L 478.286247 234.359995 
L 480.09026 234.015945 
L 481.894274 233.499869 
L 485.502301 232.811769 
L 487.306315 232.123669 
L 489.110329 231.177531 
L 490.914342 231.005506 
L 492.718356 230.489431 
L 496.326384 229.887343 
L 499.934411 229.027218 
L 501.738425 228.339118 
L 503.542438 227.478992 
L 505.346452 226.446842 
L 507.150466 226.102792 
L 508.954479 225.328679 
L 510.758493 224.812604 
L 512.562507 224.726591 
L 516.170534 223.264378 
L 517.974548 223.006341 
L 519.778562 222.31824 
L 521.582575 221.200078 
L 523.386589 220.770015 
L 526.994616 219.651852 
L 528.79863 219.393814 
L 530.602644 218.103626 
L 532.406658 216.985464 
L 537.818699 215.867301 
L 541.426726 214.749138 
L 543.23074 213.716987 
L 545.034753 212.856862 
L 546.838767 212.598825 
L 548.642781 211.996737 
L 552.250808 210.190474 
L 554.054822 209.416361 
L 557.662849 207.35206 
L 559.466863 206.66396 
L 561.270877 205.717822 
L 563.07489 204.943709 
L 564.878904 204.427634 
L 566.682918 203.309471 
L 568.486932 201.933271 
L 570.290945 201.245171 
L 572.094959 200.299033 
L 573.898973 199.86897 
L 575.702986 198.750807 
L 581.115027 196.084419 
L 582.919041 195.654356 
L 586.527068 194.364168 
L 588.331082 193.590055 
L 591.93911 192.557905 
L 595.547137 191.095692 
L 597.351151 190.751642 
L 600.959178 189.461454 
L 604.567205 188.859366 
L 606.371219 188.171266 
L 608.175233 186.623041 
L 609.979247 185.848928 
L 613.587274 185.074815 
L 615.391288 184.644752 
L 617.195301 183.87064 
L 618.999315 183.440577 
L 620.803329 182.494439 
L 622.607342 181.376276 
L 624.411356 180.516151 
L 629.823397 177.247675 
L 633.431425 175.785462 
L 637.039452 174.237236 
L 638.843466 172.861036 
L 642.451493 171.65686 
L 644.255507 170.538697 
L 647.863534 168.732434 
L 649.667548 167.356234 
L 651.471562 166.410096 
L 653.275575 165.808008 
L 658.687616 163.227632 
L 660.49163 162.195482 
L 662.295644 160.905294 
L 664.099658 160.131181 
L 665.903671 159.013018 
L 669.511699 155.830555 
L 671.315712 154.884417 
L 673.119726 154.196317 
L 674.92374 153.250179 
L 676.727753 151.787966 
L 678.531767 150.841828 
L 680.335781 148.949552 
L 682.139795 147.401327 
L 683.943808 146.197151 
L 685.747822 144.820951 
L 689.355849 141.7245 
L 691.159863 140.950387 
L 692.963877 139.574187 
L 694.76789 137.509886 
L 696.571904 135.96166 
L 698.375918 134.92951 
L 700.179932 133.467297 
L 701.983945 132.435147 
L 705.591973 128.048508 
L 709.2 122.973768 
L 709.2 122.973768 
" clip-path="url(#p7e3517e076)" style="fill: none; stroke: #d95f02; stroke-width: 2.4; stroke-linecap: square"/>
   </g>
   <g id="patch_3">
    <path d="M 50.735 363.09625 
L 50.735 28.7025 
" style="fill: none; stroke: #000000; stroke-width: 0.8; stroke-linejoin: miter; stroke-linecap: square"/>
   </g>
   <g id="patch_4">
    <path d="M 50.735 363.09625 
L 709.2 363.09625 
" style="fill: none; stroke: #000000; stroke-width: 0.8; stroke-linejoin: miter; stroke-linecap: square"/>
   </g>
   <g id="text_17">
    <text style="font-weight: 700; font-size: 14px; font-family: 'Arial Unicode MS'; text-anchor: start" x="50.735" y="22.7025" transform="rotate(-0 50.735 22.7025)">各群 2025 累積回購曲線（lifelines 95% 信賴區間）</text>
   </g>
   <g id="legend_1">
    <g id="line2d_24">
     <path d="M 59.735 41.360313 
L 69.735 41.360313 
L 79.735 41.360313 
" style="fill: none; stroke: #2f6fed; stroke-width: 2.4; stroke-linecap: square"/>
    </g>
    <g id="text_18">
     <text style="font-size: 10px; font-family: 'Arial Unicode MS'; text-anchor: start" x="87.735" y="44.860313" transform="rotate(-0 87.735 44.860313)">0 海外日本主力客</text>
    </g>
    <g id="line2d_25">
     <path d="M 59.735 55.55875 
L 69.735 55.55875 
L 79.735 55.55875 
" style="fill: none; stroke: #1c8c62; stroke-width: 2.4; stroke-linecap: square"/>
    </g>
    <g id="text_19">
     <text style="font-size: 10px; font-family: 'Arial Unicode MS'; text-anchor: start" x="87.735" y="59.05875" transform="rotate(-0 87.735 59.05875)">1 多目的地長天數高價值客</text>
    </g>
    <g id="line2d_26">
     <path d="M 59.735 69.793125 
L 69.735 69.793125 
L 79.735 69.793125 
" style="fill: none; stroke: #d95f02; stroke-width: 2.4; stroke-linecap: square"/>
    </g>
    <g id="text_20">
     <text style="font-size: 10px; font-family: 'Arial Unicode MS'; text-anchor: start" x="87.735" y="73.293125" transform="rotate(-0 87.735 73.293125)">2 臨行前快速投保客</text>
    </g>
   </g>
  </g>
 </g>
 <defs>
  <clipPath id="p7e3517e076">
   <rect x="50.735" y="28.7025" width="658.465" height="334.39375"/>
  </clipPath>
 </defs>
</svg>
