<svg xmlns="http://www.w3.org/2000/svg" width="1080" height="660" viewBox="0 0 1080 660">
<rect width="100%" height="100%" fill="#ffffff"/>
<style>
text { font-family: -apple-system, BlinkMacSystemFont, "Noto Sans TC", "Microsoft JhengHei", Arial, sans-serif; fill: #243044; }
.title { font-size: 24px; font-weight: 700; }
.label { font-size: 14px; }
.small { font-size: 12px; fill: #5d6b82; }
.value { font-size: 14px; font-weight: 700; }
</style>
<text x="30" y="42" class="title">客群輪廓標準化 Heatmap</text>
<text x="30" y="68" class="small">數值為各指標跨客群標準化後的 z-score；紅色代表相對較高，藍色代表相對較低。</text>
<text x="348.3" y="100" transform="rotate(-18 348.3,100)" text-anchor="middle" class="small">0 海外日本主力客</text>
<text x="625.0" y="100" transform="rotate(-18 625.0,100)" text-anchor="middle" class="small">1 多目的地長天數高價值客</text>
<text x="901.7" y="100" transform="rotate(-18 901.7,100)" text-anchor="middle" class="small">2 臨行前快速投保客</text>
<text x="198" y="149.3" text-anchor="end" class="small">距上次投保天數</text>
<rect x="210.0" y="118.0" width="276.7" height="48.2" fill="#e3edf6" stroke="#ffffff"/>
<text x="348.3" y="149.3" text-anchor="middle" class="small" fill="#1f2937">-0.2</text>
<rect x="486.7" y="118.0" width="276.7" height="48.2" fill="#6099cf" stroke="#ffffff"/>
<text x="625.0" y="149.3" text-anchor="middle" class="small" fill="#ffffff">-1.1</text>
<rect x="763.3" y="118.0" width="276.7" height="48.2" fill="#dc6c17" stroke="#ffffff"/>
<text x="901.7" y="149.3" text-anchor="middle" class="small" fill="#ffffff">+1.3</text>
<text x="198" y="197.5" text-anchor="end" class="small">平均投保次數</text>
<rect x="210.0" y="166.2" width="276.7" height="48.2" fill="#d9e6f3" stroke="#ffffff"/>
<text x="348.3" y="197.5" text-anchor="middle" class="small" fill="#1f2937">-0.2</text>
<rect x="486.7" y="166.2" width="276.7" height="48.2" fill="#db6912" stroke="#ffffff"/>
<text x="625.0" y="197.5" text-anchor="middle" class="small" fill="#ffffff">+1.3</text>
<rect x="763.3" y="166.2" width="276.7" height="48.2" fill="#669dd1" stroke="#ffffff"/>
<text x="901.7" y="197.5" text-anchor="middle" class="small" fill="#ffffff">-1.1</text>
<text x="198" y="245.7" text-anchor="end" class="small">累積保費中位數</text>
<rect x="210.0" y="214.4" width="276.7" height="48.2" fill="#f3dfd1" stroke="#ffffff"/>
<text x="348.3" y="245.7" text-anchor="middle" class="small" fill="#1f2937">+0.2</text>
<rect x="486.7" y="214.4" width="276.7" height="48.2" fill="#e0833c" stroke="#ffffff"/>
<text x="625.0" y="245.7" text-anchor="middle" class="small" fill="#ffffff">+1.1</text>
<rect x="763.3" y="214.4" width="276.7" height="48.2" fill="#4689c7" stroke="#ffffff"/>
<text x="901.7" y="245.7" text-anchor="middle" class="small" fill="#ffffff">-1.3</text>
<text x="198" y="293.9" text-anchor="end" class="small">單筆保費中位數</text>
<rect x="210.0" y="262.6" width="276.7" height="48.2" fill="#f2dece" stroke="#ffffff"/>
<text x="348.3" y="293.9" text-anchor="middle" class="small" fill="#1f2937">+0.3</text>
<rect x="486.7" y="262.6" width="276.7" height="48.2" fill="#e0843e" stroke="#ffffff"/>
<text x="625.0" y="293.9" text-anchor="middle" class="small" fill="#ffffff">+1.1</text>
<rect x="763.3" y="262.6" width="276.7" height="48.2" fill="#4689c7" stroke="#ffffff"/>
<text x="901.7" y="293.9" text-anchor="middle" class="small" fill="#ffffff">-1.3</text>
<text x="198" y="342.1" text-anchor="end" class="small">平均旅遊天數</text>
<rect x="210.0" y="310.8" width="276.7" height="48.2" fill="#d4e3f1" stroke="#ffffff"/>
<text x="348.3" y="342.1" text-anchor="middle" class="small" fill="#1f2937">-0.3</text>
<rect x="486.7" y="310.8" width="276.7" height="48.2" fill="#db6710" stroke="#ffffff"/>
<text x="625.0" y="342.1" text-anchor="middle" class="small" fill="#ffffff">+1.3</text>
<rect x="763.3" y="310.8" width="276.7" height="48.2" fill="#699fd2" stroke="#ffffff"/>
<text x="901.7" y="342.1" text-anchor="middle" class="small" fill="#ffffff">-1.1</text>
<text x="198" y="390.3" text-anchor="end" class="small">海外旅遊占比</text>
<rect x="210.0" y="359.0" width="276.7" height="48.2" fill="#e9ad80" stroke="#ffffff"/>
<text x="348.3" y="390.3" text-anchor="middle" class="small" fill="#1f2937">+0.7</text>
<rect x="486.7" y="359.0" width="276.7" height="48.2" fill="#e8ac7e" stroke="#ffffff"/>
<text x="625.0" y="390.3" text-anchor="middle" class="small" fill="#1f2937">+0.7</text>
<rect x="763.3" y="359.0" width="276.7" height="48.2" fill="#3b82c4" stroke="#ffffff"/>
<text x="901.7" y="390.3" text-anchor="middle" class="small" fill="#ffffff">-1.4</text>
<text x="198" y="438.5" text-anchor="end" class="small">日本目的地占比</text>
<rect x="210.0" y="407.2" width="276.7" height="48.2" fill="#dd7322" stroke="#ffffff"/>
<text x="348.3" y="438.5" text-anchor="middle" class="small" fill="#ffffff">+1.2</text>
<rect x="486.7" y="407.2" width="276.7" height="48.2" fill="#f5f8fb" stroke="#ffffff"/>
<text x="625.0" y="438.5" text-anchor="middle" class="small" fill="#1f2937">-0.0</text>
<rect x="763.3" y="407.2" width="276.7" height="48.2" fill="#5693cc" stroke="#ffffff"/>
<text x="901.7" y="438.5" text-anchor="middle" class="small" fill="#ffffff">-1.2</text>
<text x="198" y="486.7" text-anchor="end" class="small">多目的地占比</text>
<rect x="210.0" y="455.4" width="276.7" height="48.2" fill="#9abee0" stroke="#ffffff"/>
<text x="348.3" y="486.7" text-anchor="middle" class="small" fill="#1f2937">-0.7</text>
<rect x="486.7" y="455.4" width="276.7" height="48.2" fill="#d95f02" stroke="#ffffff"/>
<text x="625.0" y="486.7" text-anchor="middle" class="small" fill="#ffffff">+1.4</text>
<rect x="763.3" y="455.4" width="276.7" height="48.2" fill="#99bee0" stroke="#ffffff"/>
<text x="901.7" y="486.7" text-anchor="middle" class="small" fill="#1f2937">-0.7</text>
<text x="198" y="534.9" text-anchor="end" class="small">臨行前投保占比</text>
<rect x="210.0" y="503.6" width="276.7" height="48.2" fill="#8db6dc" stroke="#ffffff"/>
<text x="348.3" y="534.9" text-anchor="middle" class="small" fill="#1f2937">-0.8</text>
<rect x="486.7" y="503.6" width="276.7" height="48.2" fill="#a7c6e4" stroke="#ffffff"/>
<text x="625.0" y="534.9" text-anchor="middle" class="small" fill="#1f2937">-0.6</text>
<rect x="763.3" y="503.6" width="276.7" height="48.2" fill="#d95f03" stroke="#ffffff"/>
<text x="901.7" y="534.9" text-anchor="middle" class="small" fill="#ffffff">+1.4</text>
<text x="198" y="583.1" text-anchor="end" class="small">2025 回購率</text>
<rect x="210.0" y="551.8" width="276.7" height="48.2" fill="#f4e7dd" stroke="#ffffff"/>
<text x="348.3" y="583.1" text-anchor="middle" class="small" fill="#1f2937">+0.2</text>
<rect x="486.7" y="551.8" width="276.7" height="48.2" fill="#df7e34" stroke="#ffffff"/>
<text x="625.0" y="583.1" text-anchor="middle" class="small" fill="#ffffff">+1.1</text>
<rect x="763.3" y="551.8" width="276.7" height="48.2" fill="#4a8cc8" stroke="#ffffff"/>
<text x="901.7" y="583.1" text-anchor="middle" class="small" fill="#ffffff">-1.3</text>
<text x="625.0" y="636" text-anchor="middle" class="small">相對比較圖，適合簡報快速說明每群高低特徵。</text>
</svg>
